140614_FengardoRedux_Regular 1.ufo
<glyph name="ampersand" format="1">
  <advance width="682"/>
  <unicode hex="0026"/>
  <outline>
    <contour>
      <point x="313" y="422" type="line"/>
      <point x="239" y="426"/>
      <point x="195" y="463"/>
      <point x="195" y="539" type="curve" smooth="yes"/>
      <point x="195" y="605"/>
      <point x="240" y="640"/>
      <point x="309" y="640" type="curve" smooth="yes"/>
      <point x="375" y="640"/>
      <point x="419" y="597"/>
      <point x="419" y="525" type="curve"/>
      <point x="499" y="530" type="line"/>
      <point x="507" y="640"/>
      <point x="425" y="715"/>
      <point x="311" y="715" type="curve" smooth="yes"/>
      <point x="179" y="715"/>
      <point x="105" y="634"/>
      <point x="105" y="539" type="curve" smooth="yes"/>
      <point x="105" y="460"/>
      <point x="154" y="404"/>
      <point x="212" y="388" type="curve"/>
      <point x="142" y="364"/>
      <point x="70" y="308"/>
      <point x="70" y="203" type="curve" smooth="yes"/>
      <point x="70" y="71"/>
      <point x="173" y="-15"/>
      <point x="323" y="-15" type="curve" smooth="yes"/>
      <point x="494" y="-15"/>
      <point x="578" y="122"/>
      <point x="578" y="271" type="curve" smooth="yes"/>
      <point x="578" y="320"/>
      <point x="576" y="352"/>
      <point x="576" y="352" type="curve"/>
      <point x="662" y="352" type="line"/>
      <point x="662" y="422" type="line"/>
      <point x="418" y="422" type="line"/>
      <point x="418" y="421"/>
      <point x="418" y="352"/>
      <point x="418" y="352" type="curve"/>
      <point x="498" y="352" type="line"/>
      <point x="498" y="352"/>
      <point x="498" y="321"/>
      <point x="498" y="271" type="curve" smooth="yes"/>
      <point x="498" y="147"/>
      <point x="443" y="60"/>
      <point x="323" y="60" type="curve" smooth="yes"/>
      <point x="229" y="60"/>
      <point x="160" y="109"/>
      <point x="160" y="203" type="curve" smooth="yes"/>
      <point x="160" y="282"/>
      <point x="218" y="352"/>
      <point x="312" y="352" type="curve"/>
    </contour>
    <contour>
      <point x="300" y="352" type="line"/>
      <point x="334" y="352" type="line"/>
      <point x="334" y="422" type="line"/>
      <point x="300" y="422" type="line"/>
    </contour>
  </outline>
</glyph>
<glyph name="quotesingle" format="1">
  <advance width="193"/>
  <unicode hex="0027"/>
  <outline>
    <contour>
      <point x="52" y="691" type="line"/>
      <point x="53" y="628"/>
      <point x="65" y="460"/>
      <point x="65" y="460" type="curve"/>
      <point x="122" y="460" type="line"/>
      <point x="122" y="460"/>
      <point x="138" y="659"/>
      <point x="141" y="725" type="curve"/>
    </contour>
  </outline>
</glyph>
<glyph name="asterisk" format="1">
  <advance width="410"/>
  <unicode hex="002A"/>
  <outline>
    <contour>
      <point x="34" y="567" type="line"/>
      <point x="62" y="559"/>
      <point x="119" y="540"/>
      <point x="161" y="530" type="curve"/>
      <point x="134" y="497"/>
      <point x="88" y="440"/>
      <point x="69" y="415" type="curve"/>
      <point x="122" y="379" type="line"/>
      <point x="140" y="407"/>
      <point x="180" y="466"/>
      <point x="203" y="503" type="curve"/>
      <point x="225" y="466"/>
      <point x="268" y="406"/>
      <point x="287" y="379" type="curve"/>
      <point x="341" y="415" type="line"/>
      <point x="321" y="440"/>
      <point x="275" y="497"/>
      <point x="248" y="530" type="curve"/>
      <point x="291" y="540"/>
      <point x="348" y="559"/>
      <point x="376" y="567" type="curve"/>
      <point x="355" y="627" type="line"/>
      <point x="328" y="617"/>
      <point x="271" y="594"/>
      <point x="231" y="577" type="curve"/>
      <point x="241" y="719" type="line"/>
      <point x="171" y="715" type="line"/>
      <point x="171" y="685"/>
      <point x="175" y="621"/>
      <point x="178" y="578" type="curve"/>
      <point x="55" y="627" type="line"/>
    </contour>
  </outline>
</glyph>
<glyph name="plus" format="1">
  <advance width="578"/>
  <unicode hex="002B"/>
  <outline>
    <contour>
      <point x="323" y="2" type="line"/>
      <point x="323" y="225" type="line"/>
      <point x="536" y="225" type="line"/>
      <point x="536" y="300" type="line"/>
      <point x="323" y="300" type="line"/>
      <point x="323" y="531" type="line"/>
      <point x="243" y="531" type="line"/>
      <point x="243" y="300" type="line"/>
      <point x="42" y="300" type="line"/>
      <point x="42" y="225" type="line"/>
      <point x="243" y="225" type="line"/>
      <point x="243" y="2" type="line"/>
    </contour>
  </outline>
</glyph>
<glyph name="comma" format="1">
  <advance width="224"/>
  <unicode hex="002C"/>
  <outline>
    <contour>
      <point x="62" y="-156" type="line"/>
      <point x="114" y="-131"/>
      <point x="190" y="-52"/>
      <point x="187" y="35" type="curve" smooth="yes"/>
      <point x="185" y="97"/>
      <point x="151" y="115"/>
      <point x="116" y="115" type="curve" smooth="yes"/>
      <point x="78" y="115"/>
      <point x="50" y="87"/>
      <point x="50" y="48" type="curve" smooth="yes"/>
      <point x="50" y="12"/>
      <point x="75" y="-14"/>
      <point x="112" y="-16" type="curve"/>
      <point x="93" y="-75"/>
      <point x="45" y="-104"/>
      <point x="13" y="-128" type="curve"/>
    </contour>
  </outline>
</glyph>
<glyph name="hyphen" format="1">
  <advance width="349"/>
  <unicode hex="002D"/>
  <outline>
    <contour>
      <point x="42" y="225" type="line"/>
      <point x="307" y="225" type="line"/>
      <point x="307" y="300" type="line"/>
      <point x="42" y="300" type="line"/>
    </contour>
  </outline>
</glyph>
<glyph name="period" format="1">
  <advance width="234"/>
  <unicode hex="002E"/>
  <outline>
    <contour>
      <point x="52" y="49" type="curve" smooth="yes"/>
      <point x="52" y="13"/>
      <point x="79" y="-15"/>
      <point x="116" y="-15" type="curve" smooth="yes"/>
      <point x="154" y="-15"/>
      <point x="182" y="13"/>
      <point x="182" y="49" type="curve" smooth="yes"/>
      <point x="182" y="86"/>
      <point x="154" y="115"/>
      <point x="116" y="115" type="curve" smooth="yes"/>
      <point x="79" y="115"/>
      <point x="52" y="86"/>
    </contour>
  </outline>
</glyph>
<glyph name="two" format="1">
  <advance width="488"/>
  <unicode hex="0032"/>
  <outline>
    <contour>
      <point x="65" y="0" type="line"/>
      <point x="438" y="0" type="line"/>
      <point x="438" y="75" type="line"/>
      <point x="259" y="75" type="line"/>
      <point x="172" y="65" type="line"/>
      <point x="273" y="126"/>
      <point x="414" y="233"/>
      <point x="414" y="360" type="curve" smooth="yes"/>
      <point x="414" y="455"/>
      <point x="348" y="515"/>
      <point x="241" y="515" type="curve" smooth="yes"/>
      <point x="123" y="515"/>
      <point x="46" y="424"/>
      <point x="56" y="324" type="curve"/>
      <point x="136" y="329" type="line"/>
      <point x="137" y="409"/>
      <point x="183" y="440"/>
      <point x="237" y="440" type="curve" smooth="yes"/>
      <point x="297" y="440"/>
      <point x="324" y="403"/>
      <point x="324" y="346" type="curve" smooth="yes"/>
      <point x="324" y="219"/>
      <point x="113" y="97"/>
      <point x="55" y="54" type="curve"/>
    </contour>
  </outline>
</glyph>
<glyph name="three" format="1">
  <advance width="486"/>
  <unicode hex="0033"/>
  <outline>
    <contour>
      <point x="250" y="233" type="curve"/>
      <point x="428" y="444" type="line"/>
      <point x="419" y="500" type="line"/>
      <point x="51" y="500" type="line"/>
      <point x="51" y="425" type="line"/>
      <point x="323" y="425" type="line"/>
      <point x="159" y="220" type="line"/>
      <point x="173" y="174" type="line"/>
      <point x="173" y="174"/>
      <point x="196" y="179"/>
      <point x="229" y="179" type="curve" smooth="yes"/>
      <point x="299" y="179"/>
      <point x="346" y="135"/>
      <point x="346" y="52" type="curve" smooth="yes"/>
      <point x="346" y="-41"/>
      <point x="295" y="-75"/>
      <point x="233" y="-75" type="curve" smooth="yes"/>
      <point x="166" y="-75"/>
      <point x="120" y="-35"/>
      <point x="110" y="28" type="curve"/>
      <point x="30" y="24" type="line"/>
      <point x="44" y="-86"/>
      <point x="123" y="-150"/>
      <point x="235" y="-150" type="curve" smooth="yes"/>
      <point x="343" y="-150"/>
      <point x="436" y="-77"/>
      <point x="436" y="54" type="curve" smooth="yes"/>
      <point x="436" y="188"/>
      <point x="347" y="234"/>
      <point x="264" y="234" type="curve" smooth="yes"/>
      <point x="261" y="234"/>
      <point x="253" y="233"/>
    </contour>
  </outline>
</glyph>
<glyph name="four" format="1">
  <advance width="553"/>
  <unicode hex="0034"/>
  <outline>
    <contour>
      <point x="323" y="264" type="line"/>
      <point x="323" y="75" type="line"/>
      <point x="138" y="75" type="line"/>
      <point x="341" y="535" type="line"/>
      <point x="341" y="535"/>
      <point x="250" y="515"/>
      <point x="250" y="515" type="curve"/>
      <point x="45" y="56" type="line"/>
      <point x="56" y="5" type="line"/>
      <point x="323" y="5" type="line"/>
      <point x="323" y="-140" type="line"/>
      <point x="403" y="-140" type="line"/>
      <point x="403" y="5" type="line"/>
      <point x="513" y="5" type="line"/>
      <point x="513" y="75" type="line"/>
      <point x="403" y="75" type="line"/>
      <point x="403" y="297" type="line"/>
    </contour>
  </outline>
</glyph>
<glyph name="nine" format="1">
  <advance width="540"/>
  <unicode hex="0039"/>
  <outline>
    <contour>
      <point x="58" y="308" type="curve" smooth="yes"/>
      <point x="58" y="170"/>
      <point x="155" y="109"/>
      <point x="247" y="109" type="curve" smooth="yes"/>
      <point x="330" y="109"/>
      <point x="390" y="157"/>
      <point x="398" y="240" type="curve"/>
      <point x="396" y="291" type="line"/>
      <point x="382" y="332" type="line"/>
      <point x="396" y="255"/>
      <point x="357" y="184"/>
      <point x="264" y="184" type="curve" smooth="yes"/>
      <point x="203" y="184"/>
      <point x="148" y="219"/>
      <point x="148" y="308" type="curve" smooth="yes"/>
      <point x="148" y="397"/>
      <point x="195" y="440"/>
      <point x="262" y="440" type="curve" smooth="yes"/>
      <point x="330" y="440"/>
      <point x="380" y="400"/>
      <point x="384" y="302" type="curve" smooth="yes"/>
      <point x="386" y="227"/>
      <point x="387" y="133"/>
      <point x="384" y="64" type="curve" smooth="yes"/>
      <point x="378" y="-31"/>
      <point x="340" y="-75"/>
      <point x="264" y="-75" type="curve" smooth="yes"/>
      <point x="186" y="-75"/>
      <point x="154" y="-26"/>
      <point x="143" y="30" type="curve"/>
      <point x="63" y="26" type="line"/>
      <point x="66" y="-79"/>
      <point x="158" y="-150"/>
      <point x="264" y="-150" type="curve" smooth="yes"/>
      <point x="375" y="-150"/>
      <point x="462" y="-82"/>
      <point x="469" y="64" type="curve" smooth="yes"/>
      <point x="473" y="136"/>
      <point x="471" y="232"/>
      <point x="469" y="293" type="curve" smooth="yes"/>
      <point x="465" y="445"/>
      <point x="371" y="515"/>
      <point x="262" y="515" type="curve" smooth="yes"/>
      <point x="149" y="515"/>
      <point x="58" y="437"/>
    </contour>
  </outline>
</glyph>
<glyph name="equal" format="1">
  <advance width="549"/>
  <unicode hex="003D"/>
  <outline>
    <contour>
      <point x="52" y="333" type="line"/>
      <point x="497" y="333" type="line"/>
      <point x="497" y="408" type="line"/>
      <point x="52" y="408" type="line"/>
    </contour>
    <contour>
      <point x="52" y="123" type="line"/>
      <point x="497" y="123" type="line"/>
      <point x="497" y="198" type="line"/>
      <point x="52" y="198" type="line"/>
    </contour>
  </outline>
</glyph>
<glyph name="F" format="1">
  <advance width="499"/>
  <unicode hex="0046"/>
  <outline>
    <contour>
      <point x="95" y="0" type="line"/>
      <point x="185" y="0" type="line"/>
      <point x="185" y="300" type="line"/>
      <point x="470" y="300" type="line"/>
      <point x="470" y="375" type="line"/>
      <point x="185" y="375" type="line"/>
      <point x="185" y="625" type="line"/>
      <point x="489" y="625" type="line"/>
      <point x="489" y="700" type="line"/>
      <point x="95" y="700" type="line"/>
    </contour>
  </outline>
</glyph>
<glyph name="G" format="1">
  <advance width="624"/>
  <unicode hex="0047"/>
  <outline>
    <contour>
      <point x="331" y="640" type="curve" smooth="yes"/>
      <point x="430" y="640"/>
      <point x="474" y="594"/>
      <point x="475" y="495" type="curve"/>
      <point x="553" y="495" type="line"/>
      <point x="554" y="498"/>
      <point x="555" y="507"/>
      <point x="555" y="515" type="curve" smooth="yes"/>
      <point x="555" y="632"/>
      <point x="478" y="715"/>
      <point x="331" y="715" type="curve" smooth="yes"/>
      <point x="180" y="715"/>
      <point x="91" y="627"/>
      <point x="83" y="472" type="curve" smooth="yes"/>
      <point x="79" y="392"/>
      <point x="80" y="317"/>
      <point x="83" y="231" type="curve" smooth="yes"/>
      <point x="89" y="75"/>
      <point x="181" y="-15"/>
      <point x="331" y="-15" type="curve" smooth="yes"/>
      <point x="495" y="-15"/>
      <point x="569" y="84"/>
      <point x="569" y="222" type="curve" smooth="yes"/>
      <point x="569" y="365" type="line"/>
      <point x="322" y="365" type="line"/>
      <point x="322" y="295" type="line"/>
      <point x="484" y="295" type="line"/>
      <point x="484" y="221" type="line" smooth="yes"/>
      <point x="484" y="112"/>
      <point x="433" y="59"/>
      <point x="331" y="59" type="curve" smooth="yes"/>
      <point x="230" y="59"/>
      <point x="177" y="117"/>
      <point x="173" y="232" type="curve" smooth="yes"/>
      <point x="170" y="321"/>
      <point x="171" y="399"/>
      <point x="173" y="470" type="curve" smooth="yes"/>
      <point x="177" y="585"/>
      <point x="231" y="640"/>
    </contour>
  </outline>
</glyph>
<glyph name="J" format="1">
  <advance width="522"/>
  <unicode hex="004A"/>
  <outline>
    <contour>
      <point x="347" y="235" type="line" smooth="yes"/>
      <point x="347" y="120"/>
      <point x="315" y="60"/>
      <point x="234" y="60" type="curve" smooth="yes"/>
      <point x="154" y="60"/>
      <point x="116" y="106"/>
      <point x="115" y="205" type="curve"/>
      <point x="37" y="205" type="line"/>
      <point x="36" y="202"/>
      <point x="35" y="193"/>
      <point x="35" y="185" type="curve" smooth="yes"/>
      <point x="35" y="63"/>
      <point x="104" y="-15"/>
      <point x="234" y="-15" type="curve" smooth="yes"/>
      <point x="357" y="-15"/>
      <point x="437" y="74"/>
      <point x="437" y="235" type="curve" smooth="yes"/>
      <point x="437" y="700" type="line"/>
      <point x="347" y="700" type="line"/>
    </contour>
  </outline>
</glyph>
<glyph name="K" format="1">
  <advance width="592"/>
  <unicode hex="004B"/>
  <outline>
    <contour>
      <point x="185" y="700" type="line"/>
      <point x="95" y="700" type="line"/>
      <point x="95" y="0" type="line"/>
      <point x="185" y="0" type="line"/>
    </contour>
    <contour>
      <point x="190" y="355" type="line"/>
      <point x="493" y="0" type="line"/>
      <point x="602" y="0" type="line"/>
      <point x="299" y="361" type="line"/>
      <point x="597" y="700" type="line"/>
      <point x="493" y="700" type="line"/>
    </contour>
  </outline>
</glyph>
<glyph name="M" format="1">
  <advance width="800"/>
  <unicode hex="004D"/>
  <outline>
    <contour>
      <point x="615" y="700" type="line"/>
      <point x="615" y="700"/>
      <point x="615" y="0"/>
      <point x="615" y="0" type="curve"/>
      <point x="700" y="0" type="line"/>
      <point x="700" y="700" type="line"/>
    </contour>
    <contour>
      <point x="156" y="700" type="line"/>
      <point x="156" y="700"/>
      <point x="355" y="166"/>
      <point x="355" y="166" type="curve"/>
      <point x="355" y="166"/>
      <point x="433" y="166"/>
      <point x="433" y="166" type="curve"/>
      <point x="433" y="166"/>
      <point x="240" y="700"/>
      <point x="240" y="700" type="curve"/>
    </contour>
    <contour>
      <point x="185" y="700" type="line"/>
      <point x="100" y="700" type="line"/>
      <point x="100" y="0" type="line"/>
      <point x="185" y="0" type="line"/>
    </contour>
    <contour>
      <point x="643" y="700" type="curve"/>
      <point x="560" y="700" type="line"/>
      <point x="560" y="700"/>
      <point x="367" y="166"/>
      <point x="367" y="166" type="curve"/>
      <point x="445" y="166" type="line"/>
      <point x="445" y="166"/>
      <point x="643" y="700"/>
    </contour>
  </outline>
</glyph>
<glyph name="N" format="1">
  <advance width="720"/>
  <unicode hex="004E"/>
  <outline>
    <contour>
      <point x="535" y="0" type="curve"/>
      <point x="620" y="0" type="line"/>
      <point x="620" y="700" type="line"/>
      <point x="535" y="700" type="line"/>
      <point x="535" y="700"/>
      <point x="535" y="0"/>
    </contour>
    <contour>
      <point x="185" y="700" type="line"/>
      <point x="100" y="700" type="line"/>
      <point x="100" y="0" type="line"/>
      <point x="185" y="0" type="line"/>
    </contour>
    <contour>
      <point x="594" y="0" type="line"/>
      <point x="594" y="0"/>
      <point x="220" y="700"/>
      <point x="220" y="700" type="curve"/>
      <point x="125" y="700" type="line"/>
      <point x="125" y="700"/>
      <point x="499" y="0"/>
      <point x="499" y="0" type="curve"/>
    </contour>
  </outline>
</glyph>
<glyph name="O" format="1">
  <advance width="659.0"/>
  <unicode hex="004F"/>
  <outline>
    <contour>
      <point x="330" y="60" type="curve" smooth="yes"/>
      <point x="231" y="60"/>
      <point x="176" y="122"/>
      <point x="173" y="232" type="curve" smooth="yes"/>
      <point x="170" y="321"/>
      <point x="171" y="399"/>
      <point x="173" y="470" type="curve" smooth="yes"/>
      <point x="176" y="580"/>
      <point x="231" y="640"/>
      <point x="330" y="640" type="curve" smooth="yes"/>
      <point x="429" y="640"/>
      <point x="484" y="580"/>
      <point x="487" y="470" type="curve" smooth="yes"/>
      <point x="489" y="399"/>
      <point x="490" y="321"/>
      <point x="487" y="232" type="curve" smooth="yes"/>
      <point x="484" y="122"/>
      <point x="429" y="60"/>
    </contour>
    <contour>
      <point x="330" y="-15" type="curve" smooth="yes"/>
      <point x="479" y="-15"/>
      <point x="571" y="75"/>
      <point x="577" y="231" type="curve" smooth="yes"/>
      <point x="580" y="317"/>
      <point x="580" y="392"/>
      <point x="577" y="472" type="curve" smooth="yes"/>
      <point x="571" y="627"/>
      <point x="480" y="715"/>
      <point x="330" y="715" type="curve" smooth="yes"/>
      <point x="181" y="715"/>
      <point x="91" y="627"/>
      <point x="83" y="472" type="curve" smooth="yes"/>
      <point x="79" y="392"/>
      <point x="80" y="317"/>
      <point x="83" y="231" type="curve" smooth="yes"/>
      <point x="89" y="75"/>
      <point x="181" y="-15"/>
    </contour>
  </outline>
</glyph>
<glyph name="R" format="1">
  <advance width="620.0"/>
  <unicode hex="0052"/>
  <outline>
    <contour>
      <point x="305" y="319" type="line"/>
      <point x="491" y="0" type="line"/>
      <point x="590" y="0" type="line"/>
      <point x="399" y="319" type="line"/>
    </contour>
    <contour>
      <point x="185" y="0" type="line"/>
      <point x="185" y="285" type="line"/>
      <point x="334" y="285" type="line" smooth="yes"/>
      <point x="360" y="289" type="line"/>
      <point x="466.662776886" y="293.102414496"/>
      <point x="560.0" y="350.492822967"/>
      <point x="560" y="493" type="curve" smooth="yes"/>
      <point x="560" y="638"/>
      <point x="467" y="700"/>
      <point x="295" y="700" type="curve" smooth="yes"/>
      <point x="95" y="700" type="line"/>
      <point x="95" y="0" type="line"/>
    </contour>
    <contour>
      <point x="185" y="625" type="line"/>
      <point x="295" y="625" type="line" smooth="yes"/>
      <point x="412" y="625"/>
      <point x="470" y="589"/>
      <point x="470" y="493" type="curve" smooth="yes"/>
      <point x="470.0" y="387.811188811"/>
      <point x="417.526011561" y="355"/>
      <point x="292" y="355" type="curve" smooth="yes"/>
      <point x="185" y="355" type="line"/>
    </contour>
  </outline>
</glyph>
<glyph name="X" format="1">
  <advance width="628"/>
  <unicode hex="0058"/>
  <outline>
    <contour>
      <point x="361" y="332" type="line"/>
      <point x="605" y="700" type="line"/>
      <point x="507" y="700" type="line"/>
      <point x="316" y="406" type="line"/>
    </contour>
    <contour>
      <point x="277" y="375" type="line"/>
      <point x="20" y="0" type="line"/>
      <point x="118" y="0" type="line"/>
      <point x="337" y="321" type="line"/>
    </contour>
    <contour>
      <point x="125" y="700" type="line"/>
      <point x="20" y="700" type="line"/>
      <point x="270" y="341" type="line"/>
      <point x="293" y="313" type="line"/>
      <point x="508" y="0" type="line"/>
      <point x="613" y="0" type="line"/>
      <point x="347" y="382" type="line"/>
      <point x="326" y="407" type="line"/>
    </contour>
  </outline>
</glyph>
<glyph name="Y" format="1">
  <advance width="566"/>
  <unicode hex="0059"/>
  <outline>
    <contour>
      <point x="328" y="266" type="line"/>
      <point x="105" y="700" type="line"/>
      <point x="5" y="700" type="line"/>
      <point x="238" y="266" type="line"/>
    </contour>
    <contour>
      <point x="238" y="306" type="line"/>
      <point x="238" y="0" type="line"/>
      <point x="328" y="0" type="line"/>
      <point x="328" y="306" type="line"/>
    </contour>
    <contour>
      <point x="328" y="266" type="line"/>
      <point x="561" y="700" type="line"/>
      <point x="461" y="700" type="line"/>
      <point x="243" y="266" type="line"/>
    </contour>
  </outline>
</glyph>
<glyph name="grave" format="1">
  <advance width="399"/>
  <unicode hex="0060"/>
  <outline>
    <contour>
      <point x="52" y="700" type="line"/>
      <point x="183" y="555" type="line"/>
      <point x="262" y="555" type="line"/>
      <point x="152" y="700" type="line"/>
    </contour>
  </outline>
</glyph>
<glyph name="a" format="1">
  <advance width="520"/>
  <unicode hex="0061"/>
  <outline>
    <contour>
      <point x="334" y="335" type="line" smooth="yes"/>
      <point x="334" y="400"/>
      <point x="303" y="430"/>
      <point x="247" y="430" type="curve" smooth="yes"/>
      <point x="184" y="430"/>
      <point x="158" y="403"/>
      <point x="158" y="345" type="curve" smooth="yes"/>
      <point x="158" y="335" type="line"/>
      <point x="83" y="335" type="line"/>
      <point x="80.3923190379" y="340.215361924"/>
      <point x="78.0" y="349.166666667"/>
      <point x="78" y="360" type="curve" smooth="yes"/>
      <point x="78.0" y="447.111111111"/>
      <point x="138.0" y="500.0"/>
      <point x="247" y="500" type="curve" smooth="yes"/>
      <point x="357" y="500"/>
      <point x="419" y="445"/>
      <point x="419" y="335" type="curve" smooth="yes"/>
      <point x="419" y="125" type="line" smooth="yes"/>
      <point x="419" y="75"/>
      <point x="434" y="60"/>
      <point x="472" y="60" type="curve" smooth="yes"/>
      <point x="490" y="60" type="line"/>
      <point x="490" y="0" type="line"/>
      <point x="477" y="-7"/>
      <point x="460" y="-10"/>
      <point x="445" y="-10" type="curve" smooth="yes"/>
      <point x="392" y="-10"/>
      <point x="359" y="14"/>
      <point x="350" y="59" type="curve"/>
      <point x="328" y="10"/>
      <point x="290" y="-15"/>
      <point x="219" y="-15" type="curve" smooth="yes"/>
      <point x="127" y="-15"/>
      <point x="65" y="31"/>
      <point x="65" y="131" type="curve" smooth="yes"/>
      <point x="65" y="189"/>
      <point x="86" y="216"/>
      <point x="180" y="235" type="curve" smooth="yes"/>
      <point x="240" y="247"/>
      <point x="295" y="256"/>
      <point x="364" y="264" type="curve"/>
      <point x="364" y="212" type="line"/>
      <point x="308" y="205"/>
      <point x="253" y="195"/>
      <point x="210" y="185" type="curve" smooth="yes"/>
      <point x="160" y="173"/>
      <point x="150" y="161"/>
      <point x="150" y="133" type="curve" smooth="yes"/>
      <point x="150" y="79"/>
      <point x="185" y="50"/>
      <point x="241" y="50" type="curve" smooth="yes"/>
      <point x="293" y="50"/>
      <point x="334" y="76"/>
      <point x="334" y="156" type="curve" smooth="yes"/>
    </contour>
  </outline>
</glyph>
<glyph name="b" format="1">
  <advance width="552"/>
  <unicode hex="0062"/>
  <outline>
    <contour>
      <point x="180" y="300" type="line" smooth="yes"/>
      <point x="180" y="374"/>
      <point x="217" y="430"/>
      <point x="296" y="430" type="curve" smooth="yes"/>
      <point x="360" y="430"/>
      <point x="391" y="388"/>
      <point x="395" y="317" type="curve" smooth="yes"/>
      <point x="398" y="260"/>
      <point x="398" y="246"/>
      <point x="395" y="185" type="curve" smooth="yes"/>
      <point x="390" y="86"/>
      <point x="345" y="55"/>
      <point x="272" y="55" type="curve" smooth="yes"/>
      <point x="230" y="55"/>
      <point x="195" y="67"/>
      <point x="180" y="75" type="curve"/>
    </contour>
    <contour>
      <point x="95" y="30" type="line"/>
      <point x="122" y="11"/>
      <point x="189" y="-15"/>
      <point x="270" y="-15" type="curve" smooth="yes"/>
      <point x="399" y="-15"/>
      <point x="474" y="47"/>
      <point x="480" y="185" type="curve" smooth="yes"/>
      <point x="483" y="244"/>
      <point x="483" y="262"/>
      <point x="480" y="318" type="curve" smooth="yes"/>
      <point x="474" y="434"/>
      <point x="421" y="500"/>
      <point x="316" y="500" type="curve" smooth="yes"/>
      <point x="250" y="500"/>
      <point x="201" y="465"/>
      <point x="180" y="428" type="curve"/>
      <point x="180" y="735" type="line"/>
      <point x="95" y="700" type="line"/>
    </contour>
  </outline>
</glyph>
<glyph name="c" format="1">
  <advance width="486"/>
  <unicode hex="0063"/>
  <outline>
    <contour>
      <point x="196" y="55"/>
      <point x="159" y="93"/>
      <point x="156" y="160" type="curve" smooth="yes"/>
      <point x="154" y="215"/>
      <point x="154" y="275"/>
      <point x="156" y="325" type="curve" smooth="yes"/>
      <point x="159" y="392"/>
      <point x="196" y="430"/>
      <point x="256" y="430" type="curve" smooth="yes"/>
      <point x="320" y="430"/>
      <point x="356" y="395"/>
      <point x="356" y="335" type="curve" smooth="yes"/>
      <point x="356" y="325" type="line"/>
      <point x="431" y="325" type="line"/>
      <point x="434" y="330"/>
      <point x="436" y="338"/>
      <point x="436" y="350" type="curve" smooth="yes"/>
      <point x="436" y="445"/>
      <point x="370" y="500"/>
      <point x="256" y="500" type="curve" smooth="yes"/>
      <point x="143" y="500"/>
      <point x="76" y="436"/>
      <point x="71" y="324" type="curve" smooth="yes"/>
      <point x="69" y="275"/>
      <point x="69" y="215"/>
      <point x="71" y="160" type="curve" smooth="yes"/>
      <point x="76" y="49"/>
      <point x="143" y="-15"/>
      <point x="256" y="-15" type="curve" smooth="yes"/>
      <point x="370" y="-15"/>
      <point x="436" y="40"/>
      <point x="436" y="135" type="curve" smooth="yes"/>
      <point x="436" y="146"/>
      <point x="434" y="155"/>
      <point x="431" y="160" type="curve"/>
      <point x="356" y="160" type="line"/>
      <point x="356" y="150" type="line" smooth="yes"/>
      <point x="356" y="90"/>
      <point x="320" y="55"/>
      <point x="256" y="55" type="curve" smooth="yes"/>
    </contour>
  </outline>
</glyph>
<glyph name="f" format="1">
  <advance width="333"/>
  <unicode hex="0066"/>
  <outline>
    <contour>
      <point x="316" y="637"/>
      <point x="302" y="665"/>
      <point x="257" y="665" type="curve" smooth="yes"/>
      <point x="210" y="665"/>
      <point x="190" y="634"/>
      <point x="190" y="551" type="curve" smooth="yes"/>
      <point x="190" y="480" type="line"/>
      <point x="315" y="480" type="line"/>
      <point x="315" y="415" type="line"/>
      <point x="190" y="415" type="line"/>
      <point x="190" y="0" type="line"/>
      <point x="105" y="0" type="line"/>
      <point x="105" y="415" type="line"/>
      <point x="30" y="415" type="line"/>
      <point x="30" y="480" type="line"/>
      <point x="105" y="480" type="line"/>
      <point x="105" y="561" type="line" smooth="yes"/>
      <point x="105" y="680"/>
      <point x="163" y="735"/>
      <point x="257" y="735" type="curve" smooth="yes"/>
      <point x="342" y="735"/>
      <point x="391" y="689"/>
      <point x="391" y="614" type="curve" smooth="yes"/>
      <point x="391" y="595"/>
      <point x="390" y="587"/>
      <point x="388" y="580" type="curve"/>
      <point x="316" y="580" type="line"/>
    </contour>
  </outline>
</glyph>
<glyph name="h" format="1">
  <advance width="568"/>
  <unicode hex="0068"/>
  <outline>
    <contour>
      <point x="180" y="307" type="line"/>
      <point x="180" y="371"/>
      <point x="209" y="430"/>
      <point x="295" y="430" type="curve" smooth="yes"/>
      <point x="367" y="430"/>
      <point x="393" y="388"/>
      <point x="393" y="312" type="curve" smooth="yes"/>
      <point x="393" y="0" type="line"/>
      <point x="478" y="0" type="line"/>
      <point x="478" y="332" type="line" smooth="yes"/>
      <point x="478" y="443"/>
      <point x="425" y="500"/>
      <point x="328" y="500" type="curve" smooth="yes"/>
      <point x="257" y="500"/>
      <point x="204" y="474"/>
      <point x="170" y="417" type="curve"/>
      <point x="170" y="307" type="line"/>
    </contour>
    <contour>
      <point x="180" y="735" type="line"/>
      <point x="95" y="700" type="line"/>
      <point x="95" y="0" type="line"/>
      <point x="180" y="0" type="line"/>
    </contour>
  </outline>
</glyph>
<glyph name="i" format="1">
  <advance width="275"/>
  <unicode hex="0069"/>
  <outline>
    <contour>
      <point x="70" y="657" type="curve" smooth="yes"/>
      <point x="70" y="624"/>
      <point x="94" y="600"/>
      <point x="126" y="600" type="curve" smooth="yes"/>
      <point x="160" y="600"/>
      <point x="185" y="624"/>
      <point x="185" y="657" type="curve" smooth="yes"/>
      <point x="185" y="690"/>
      <point x="160" y="715"/>
      <point x="126" y="715" type="curve" smooth="yes"/>
      <point x="94" y="715"/>
      <point x="70" y="690"/>
    </contour>
    <contour>
      <point x="170" y="125" type="curve" smooth="yes"/>
      <point x="170" y="495" type="line"/>
      <point x="85" y="460" type="line"/>
      <point x="85" y="95" type="line" smooth="yes"/>
      <point x="85" y="19"/>
      <point x="132" y="-10"/>
      <point x="184" y="-10" type="curve" smooth="yes"/>
      <point x="203" y="-10"/>
      <point x="221" y="-6"/>
      <point x="235" y="0" type="curve"/>
      <point x="235" y="60" type="line"/>
      <point x="225" y="60" type="line" smooth="yes"/>
      <point x="185" y="60"/>
      <point x="170" y="74"/>
    </contour>
  </outline>
</glyph>
<glyph name="l" format="1">
  <advance width="280"/>
  <unicode hex="006C"/>
  <outline>
    <contour>
      <point x="240" y="60" type="line"/>
      <point x="230" y="60" type="line" smooth="yes"/>
      <point x="190" y="60"/>
      <point x="175" y="74"/>
      <point x="175" y="125" type="curve" smooth="yes"/>
      <point x="175" y="735" type="line"/>
      <point x="90" y="700" type="line"/>
      <point x="90" y="95" type="line" smooth="yes"/>
      <point x="90" y="19"/>
      <point x="137" y="-10"/>
      <point x="189" y="-10" type="curve" smooth="yes"/>
      <point x="208" y="-10"/>
      <point x="226" y="-6"/>
      <point x="240" y="0" type="curve"/>
    </contour>
  </outline>
</glyph>
<glyph name="m" format="1">
  <advance width="838"/>
  <unicode hex="006D"/>
  <outline>
    <contour>
      <point x="192" y="302" type="line" smooth="yes"/>
      <point x="192" y="388"/>
      <point x="224" y="430"/>
      <point x="296" y="430" type="curve" smooth="yes"/>
      <point x="361" y="430"/>
      <point x="385" y="388"/>
      <point x="385" y="314" type="curve" smooth="yes"/>
      <point x="385" y="0" type="line"/>
      <point x="470" y="0" type="line"/>
      <point x="470" y="295" type="line" smooth="yes"/>
      <point x="470" y="383"/>
      <point x="502" y="430"/>
      <point x="577" y="430" type="curve" smooth="yes"/>
      <point x="641" y="430"/>
      <point x="663" y="388"/>
      <point x="663" y="314" type="curve" smooth="yes"/>
      <point x="663" y="0" type="line"/>
      <point x="748" y="0" type="line"/>
      <point x="748" y="327" type="line" smooth="yes"/>
      <point x="748" y="441"/>
      <point x="698" y="500"/>
      <point x="603" y="500" type="curve" smooth="yes"/>
      <point x="541" y="500"/>
      <point x="486" y="472"/>
      <point x="455" y="417" type="curve"/>
      <point x="433" y="473"/>
      <point x="389" y="500"/>
      <point x="325" y="500" type="curve" smooth="yes"/>
      <point x="262" y="500"/>
      <point x="210" y="471"/>
      <point x="179" y="421" type="curve"/>
      <point x="170" y="465"/>
      <point x="140" y="490"/>
      <point x="95" y="490" type="curve" smooth="yes"/>
      <point x="76" y="490"/>
      <point x="59" y="487"/>
      <point x="45" y="480" type="curve"/>
      <point x="45" y="420" type="line"/>
      <point x="56" y="420" type="line" smooth="yes"/>
      <point x="88" y="420"/>
      <point x="107" y="410"/>
      <point x="107" y="355" type="curve" smooth="yes"/>
      <point x="107" y="0" type="line"/>
      <point x="192" y="0" type="line"/>
    </contour>
  </outline>
</glyph>
<glyph name="t" format="1">
  <advance width="354"/>
  <unicode hex="0074"/>
  <outline>
    <contour>
      <point x="344" y="7" type="curve"/>
      <point x="339" y="67" type="line"/>
      <point x="339" y="67"/>
      <point x="313" y="60"/>
      <point x="280" y="60" type="curve" smooth="yes"/>
      <point x="219" y="60"/>
      <point x="190" y="78"/>
      <point x="190" y="174" type="curve" smooth="yes"/>
      <point x="190" y="415" type="line"/>
      <point x="324" y="415" type="line"/>
      <point x="324" y="480" type="line"/>
      <point x="190" y="480" type="line"/>
      <point x="190" y="625" type="line"/>
      <point x="105" y="590" type="line"/>
      <point x="105" y="480" type="line"/>
      <point x="30" y="480" type="line"/>
      <point x="30" y="415" type="line"/>
      <point x="105" y="415" type="line"/>
      <point x="105" y="152" type="line" smooth="yes"/>
      <point x="105" y="40"/>
      <point x="148" y="-15"/>
      <point x="254" y="-15" type="curve" smooth="yes"/>
      <point x="295" y="-15"/>
      <point x="328" y="-5"/>
    </contour>
  </outline>
</glyph>
<glyph name="u" format="1">
  <advance width="555"/>
  <unicode hex="0075"/>
  <outline>
    <contour>
      <point x="379" y="61" type="curve"/>
      <point x="391" y="17"/>
      <point x="424" y="-10"/>
      <point x="471" y="-10" type="curve" smooth="yes"/>
      <point x="490" y="-10"/>
      <point x="507" y="-7"/>
      <point x="520" y="0" type="curve"/>
      <point x="520" y="65" type="line"/>
      <point x="507" y="65" type="line" smooth="yes"/>
      <point x="474" y="65"/>
      <point x="454" y="80"/>
      <point x="454" y="125" type="curve" smooth="yes"/>
      <point x="454" y="495" type="line"/>
      <point x="369" y="460" type="line"/>
      <point x="369" y="149" type="line" smooth="yes"/>
      <point x="369" y="105"/>
      <point x="333" y="55"/>
      <point x="260" y="55" type="curve" smooth="yes"/>
      <point x="201" y="55"/>
      <point x="165" y="90"/>
      <point x="165" y="164" type="curve" smooth="yes"/>
      <point x="165" y="495" type="line"/>
      <point x="80" y="460" type="line"/>
      <point x="80" y="148" type="line" smooth="yes"/>
      <point x="80" y="41"/>
      <point x="146" y="-15"/>
      <point x="237" y="-15" type="curve" smooth="yes"/>
      <point x="311" y="-15"/>
      <point x="356" y="20"/>
    </contour>
  </outline>
</glyph>
<glyph name="v" format="1">
  <advance width="465"/>
  <unicode hex="0076"/>
  <outline>
    <contour>
      <point x="260" y="0" type="line"/>
      <point x="260" y="0"/>
      <point x="110" y="485"/>
      <point x="110" y="485" type="curve"/>
      <point x="20" y="485" type="line"/>
      <point x="180" y="0" type="line"/>
    </contour>
    <contour>
      <point x="210" y="0" type="curve"/>
      <point x="285" y="0" type="line"/>
      <point x="445" y="485" type="line"/>
      <point x="360" y="485" type="line"/>
      <point x="360" y="485"/>
      <point x="210" y="0"/>
    </contour>
  </outline>
</glyph>
<glyph name="w" format="1">
  <advance width="734"/>
  <unicode hex="0077"/>
  <outline>
    <contour>
      <point x="546" y="0" type="line"/>
      <point x="546" y="0"/>
      <point x="418" y="485"/>
      <point x="418" y="485" type="curve"/>
      <point x="340" y="485" type="line"/>
      <point x="471" y="0" type="line"/>
    </contour>
    <contour>
      <point x="501" y="0" type="curve"/>
      <point x="571" y="0" type="line"/>
      <point x="709" y="485" type="line"/>
      <point x="624" y="485" type="line"/>
      <point x="624" y="485"/>
      <point x="501" y="0"/>
    </contour>
    <contour>
      <point x="188" y="0" type="curve"/>
      <point x="258" y="0" type="line"/>
      <point x="389" y="485" type="line"/>
      <point x="316" y="485" type="line"/>
      <point x="316" y="485"/>
      <point x="188" y="0"/>
    </contour>
    <contour>
      <point x="233" y="0" type="line"/>
      <point x="233" y="0"/>
      <point x="110" y="485"/>
      <point x="110" y="485" type="curve"/>
      <point x="20" y="485" type="line"/>
      <point x="158" y="0" type="line"/>
    </contour>
  </outline>
</glyph>
<glyph name="bar" format="1">
  <advance width="264"/>
  <unicode hex="007C"/>
  <outline>
    <contour>
      <point x="167" y="750" type="line"/>
      <point x="97" y="750" type="line"/>
      <point x="97" y="-250" type="line"/>
      <point x="167" y="-250" type="line"/>
    </contour>
  </outline>
</glyph>
<glyph name="sterling" format="1">
  <advance width="604"/>
  <unicode hex="00A3"/>
  <outline>
    <contour>
      <point x="227" y="515" type="curve" smooth="yes"/>
      <point x="227" y="602"/>
      <point x="271" y="640"/>
      <point x="334" y="640" type="curve" smooth="yes"/>
      <point x="410" y="640"/>
      <point x="441" y="594"/>
      <point x="441" y="515" type="curve"/>
      <point x="521" y="520" type="line"/>
      <point x="529" y="646"/>
      <point x="452" y="715"/>
      <point x="334" y="715" type="curve" smooth="yes"/>
      <point x="227" y="715"/>
      <point x="137" y="640"/>
      <point x="137" y="510" type="curve" smooth="yes"/>
      <point x="137" y="428"/>
      <point x="147" y="289"/>
      <point x="147" y="177" type="curve" smooth="yes"/>
      <point x="147" y="76"/>
      <point x="59" y="50"/>
      <point x="59" y="50" type="curve"/>
      <point x="67" y="0" type="line"/>
      <point x="532" y="0" type="line"/>
      <point x="542" y="75" type="line"/>
      <point x="255" y="75" type="line" smooth="yes"/>
      <point x="212" y="75"/>
      <point x="143" y="55"/>
      <point x="143" y="55" type="curve"/>
      <point x="143" y="55"/>
      <point x="237" y="87"/>
      <point x="237" y="183" type="curve" smooth="yes"/>
      <point x="237" y="282"/>
      <point x="227" y="426"/>
    </contour>
    <contour>
      <point x="371" y="305" type="line"/>
      <point x="381" y="370" type="line"/>
      <point x="67" y="370" type="line"/>
      <point x="57" y="305" type="line"/>
    </contour>
  </outline>
</glyph>
<glyph name="yen" format="1">
  <advance width="570"/>
  <unicode hex="00A5"/>
  <outline>
    <contour>
      <point x="330" y="306" type="line"/>
      <point x="558" y="700" type="line"/>
      <point x="461" y="700" type="line"/>
      <point x="288" y="384" type="line"/>
      <point x="110" y="700" type="line"/>
      <point x="12" y="700" type="line"/>
      <point x="240" y="306" type="line"/>
      <point x="240" y="0" type="line"/>
      <point x="330" y="0" type="line"/>
    </contour>
    <contour>
      <point x="87" y="243" type="line"/>
      <point x="492" y="243" type="line"/>
      <point x="492" y="308" type="line"/>
      <point x="87" y="308" type="line"/>
    </contour>
    <contour>
      <point x="87" y="113" type="line"/>
      <point x="492" y="113" type="line"/>
      <point x="492" y="178" type="line"/>
      <point x="87" y="178" type="line"/>
    </contour>
  </outline>
</glyph>
<glyph name="copyright" format="1">
  <advance width="853"/>
  <unicode hex="00A9"/>
  <outline>
    <contour>
      <point x="62" y="350" type="curve" smooth="yes"/>
      <point x="62" y="149"/>
      <point x="225" y="-14"/>
      <point x="426" y="-14" type="curve" smooth="yes"/>
      <point x="628" y="-14"/>
      <point x="791" y="149"/>
      <point x="791" y="350" type="curve" smooth="yes"/>
      <point x="791" y="552"/>
      <point x="628" y="715"/>
      <point x="426" y="715" type="curve" smooth="yes"/>
      <point x="225" y="715"/>
      <point x="62" y="552"/>
    </contour>
    <contour>
      <point x="120" y="350" type="curve" smooth="yes"/>
      <point x="120" y="523"/>
      <point x="254" y="665"/>
      <point x="426" y="665" type="curve" smooth="yes"/>
      <point x="599" y="665"/>
      <point x="732" y="523"/>
      <point x="732" y="350" type="curve" smooth="yes"/>
      <point x="732" y="178"/>
      <point x="599" y="36"/>
      <point x="426" y="36" type="curve" smooth="yes"/>
      <point x="254" y="36"/>
      <point x="120" y="178"/>
    </contour>
    <contour>
      <point x="562" y="440" type="line"/>
      <point x="568" y="517"/>
      <point x="504" y="569"/>
      <point x="426" y="569" type="curve" smooth="yes"/>
      <point x="340" y="569"/>
      <point x="279" y="509"/>
      <point x="274" y="420" type="curve" smooth="yes"/>
      <point x="272" y="383"/>
      <point x="272" y="319"/>
      <point x="274" y="276" type="curve" smooth="yes"/>
      <point x="278" y="184"/>
      <point x="340" y="131"/>
      <point x="427" y="131" type="curve" smooth="yes"/>
      <point x="498" y="131"/>
      <point x="568" y="182"/>
      <point x="563" y="267" type="curve"/>
      <point x="503" y="272" type="line"/>
      <point x="503" y="221"/>
      <point x="473" y="191"/>
      <point x="427" y="191" type="curve" smooth="yes"/>
      <point x="378" y="191"/>
      <point x="347" y="221"/>
      <point x="344" y="280" type="curve" smooth="yes"/>
      <point x="342" y="326"/>
      <point x="341" y="377"/>
      <point x="344" y="420" type="curve" smooth="yes"/>
      <point x="348" y="477"/>
      <point x="378" y="509"/>
      <point x="426" y="509" type="curve" smooth="yes"/>
      <point x="472" y="509"/>
      <point x="502" y="483"/>
      <point x="502" y="435" type="curve"/>
    </contour>
  </outline>
</glyph>
<glyph name="ordfeminine" format="1">
  <advance width="427"/>
  <unicode hex="00AA"/>
  <outline>
    <contour>
      <point x="72" y="220" type="line"/>
      <point x="355" y="220" type="line"/>
      <point x="355" y="285" type="line"/>
      <point x="72" y="285" type="line"/>
    </contour>
    <component base="asuperior" xOffset="28"/>
  </outline>
</glyph>
<glyph name="logicalnot" format="1">
  <advance width="501"/>
  <unicode hex="00AC"/>
  <outline>
    <contour>
      <point x="42" y="225" type="line"/>
      <point x="384" y="225" type="line"/>
      <point x="384" y="37" type="line"/>
      <point x="459" y="37" type="line"/>
      <point x="459" y="300" type="line"/>
      <point x="42" y="300" type="line"/>
    </contour>
  </outline>
</glyph>
<glyph name="degree" format="1">
  <advance width="400"/>
  <unicode hex="00B0"/>
  <outline>
    <contour>
      <point x="52" y="572" type="curve" smooth="yes"/>
      <point x="52" y="486"/>
      <point x="114" y="429"/>
      <point x="200" y="429" type="curve" smooth="yes"/>
      <point x="281" y="429"/>
      <point x="348" y="486"/>
      <point x="348" y="572" type="curve" smooth="yes"/>
      <point x="348" y="658"/>
      <point x="286" y="715"/>
      <point x="200" y="715" type="curve" smooth="yes"/>
      <point x="114" y="715"/>
      <point x="52" y="658"/>
    </contour>
    <contour>
      <point x="128" y="572" type="curve" smooth="yes"/>
      <point x="128" y="626"/>
      <point x="159" y="655"/>
      <point x="200" y="655" type="curve" smooth="yes"/>
      <point x="242" y="655"/>
      <point x="273" y="626"/>
      <point x="273" y="572" type="curve" smooth="yes"/>
      <point x="273" y="519"/>
      <point x="242" y="490"/>
      <point x="200" y="490" type="curve" smooth="yes"/>
      <point x="159" y="490"/>
      <point x="128" y="519"/>
    </contour>
  </outline>
</glyph>
<glyph name="twosuperior" format="1">
  <advance width="388"/>
  <unicode hex="00B2"/>
  <outline>
    <contour>
      <point x="61" y="390" type="line"/>
      <point x="341" y="390" type="line"/>
      <point x="341" y="445" type="line"/>
      <point x="138" y="445" type="line"/>
      <point x="138" y="445"/>
      <point x="181" y="475"/>
      <point x="226" y="511" type="curve" smooth="yes"/>
      <point x="281" y="555"/>
      <point x="321" y="606"/>
      <point x="321" y="671" type="curve" smooth="yes"/>
      <point x="321" y="746"/>
      <point x="270" y="795"/>
      <point x="190" y="795" type="curve" smooth="yes"/>
      <point x="101" y="795"/>
      <point x="49" y="731"/>
      <point x="57" y="655" type="curve"/>
      <point x="117" y="660" type="line"/>
      <point x="116" y="711"/>
      <point x="146" y="740"/>
      <point x="190" y="740" type="curve" smooth="yes"/>
      <point x="227" y="740"/>
      <point x="251" y="716"/>
      <point x="251" y="670" type="curve" smooth="yes"/>
      <point x="251" y="616"/>
      <point x="219" y="578"/>
      <point x="176" y="539" type="curve" smooth="yes"/>
      <point x="130" y="497"/>
      <point x="91" y="468"/>
      <point x="56" y="439" type="curve"/>
    </contour>
  </outline>
</glyph>
<glyph name="acute" format="1">
  <advance width="388"/>
  <unicode hex="00B4"/>
  <outline>
    <contour>
      <point x="337" y="700" type="line"/>
      <point x="205" y="555" type="line"/>
      <point x="127" y="555" type="line"/>
      <point x="237" y="700" type="line"/>
    </contour>
  </outline>
</glyph>
<glyph name="paragraph" format="1">
  <advance width="550"/>
  <unicode hex="00B6"/>
  <outline>
    <contour>
      <point x="264" y="600" type="line"/>
      <point x="333" y="600" type="line"/>
      <point x="333" y="60" type="line"/>
      <point x="264" y="60" type="line"/>
      <point x="264" y="0" type="line"/>
      <point x="478" y="0" type="line"/>
      <point x="478" y="60" type="line"/>
      <point x="408" y="60" type="line"/>
      <point x="408" y="600" type="line"/>
      <point x="478" y="600" type="line"/>
      <point x="478" y="660" type="line"/>
      <point x="264" y="660" type="line"/>
    </contour>
    <contour>
      <point x="258" y="501" type="line"/>
      <point x="233" y="501" type="line" smooth="yes"/>
      <point x="113" y="501"/>
      <point x="52" y="426"/>
      <point x="52" y="340" type="curve" smooth="yes"/>
      <point x="52" y="255"/>
      <point x="113" y="178"/>
      <point x="233" y="178" type="curve" smooth="yes"/>
      <point x="258" y="178" type="line"/>
    </contour>
  </outline>
</glyph>
<glyph name="cedilla" format="1">
  <advance width="374"/>
  <unicode hex="00B8"/>
  <outline>
    <contour>
      <point x="96" y="-139" type="line"/>
      <point x="90" y="-195"/>
      <point x="135" y="-230"/>
      <point x="188" y="-230" type="curve" smooth="yes"/>
      <point x="246" y="-230"/>
      <point x="281" y="-187"/>
      <point x="281" y="-139" type="curve" smooth="yes"/>
      <point x="281" y="-82"/>
      <point x="240" y="-43"/>
      <point x="182" y="-48" type="curve"/>
      <point x="182" y="-103" type="line"/>
      <point x="206" y="-103"/>
      <point x="221" y="-115"/>
      <point x="221" y="-139" type="curve" smooth="yes"/>
      <point x="221" y="-164"/>
      <point x="205" y="-175"/>
      <point x="188" y="-175" type="curve" smooth="yes"/>
      <point x="166" y="-175"/>
      <point x="151" y="-162"/>
      <point x="151" y="-139" type="curve"/>
    </contour>
  </outline>
</glyph>
<glyph name="Eth" format="1">
  <advance width="615"/>
  <unicode hex="00D0"/>
  <outline>
    <contour>
      <point x="35" y="300" type="line"/>
      <point x="305" y="300" type="line"/>
      <point x="305" y="360" type="line"/>
      <point x="35" y="360" type="line"/>
    </contour>
    <component base="D" xOffset="9"/>
  </outline>
</glyph>
<glyph name="Thorn" format="1">
  <advance width="570"/>
  <unicode hex="00DE"/>
  <outline>
    <contour>
      <point x="185" y="700" type="line"/>
      <point x="95" y="700" type="line"/>
      <point x="95" y="0" type="line"/>
      <point x="185" y="0" type="line"/>
      <point x="185" y="145" type="line"/>
      <point x="185" y="145"/>
      <point x="232" y="144"/>
      <point x="281" y="144" type="curve" smooth="yes"/>
      <point x="452" y="144"/>
      <point x="540" y="225"/>
      <point x="540" y="361" type="curve" smooth="yes"/>
      <point x="540" y="531"/>
      <point x="417" y="571"/>
      <point x="281" y="571" type="curve" smooth="yes"/>
      <point x="229" y="571"/>
      <point x="185" y="570"/>
      <point x="185" y="570" type="curve"/>
    </contour>
    <contour>
      <point x="185" y="495" type="line"/>
      <point x="185" y="495"/>
      <point x="234" y="496"/>
      <point x="279" y="496" type="curve" smooth="yes"/>
      <point x="402" y="496"/>
      <point x="450" y="451"/>
      <point x="450" y="360" type="curve" smooth="yes"/>
      <point x="450" y="244"/>
      <point x="372" y="220"/>
      <point x="276" y="220" type="curve" smooth="yes"/>
      <point x="232" y="220"/>
      <point x="185" y="221"/>
      <point x="185" y="221" type="curve"/>
    </contour>
  </outline>
</glyph>
<glyph name="oslash" format="1">
  <advance width="526"/>
  <unicode hex="00F8"/>
  <outline>
    <contour>
      <point x="476" y="500" type="line"/>
      <point x="416" y="500" type="line"/>
      <point x="51" y="-15" type="line"/>
      <point x="50" y="-15"/>
      <point x="111" y="-15"/>
      <point x="111" y="-15" type="curve"/>
    </contour>
    <component base="o"/>
  </outline>
</glyph>
<glyph name="thorn" format="1">
  <advance width="549"/>
  <unicode hex="00FE"/>
  <outline>
    <contour>
      <point x="95" y="715" type="line"/>
      <point x="95" y="-250" type="line"/>
      <point x="180" y="-250" type="line"/>
      <point x="180" y="50" type="line"/>
      <point x="204" y="11"/>
      <point x="256" y="-15"/>
      <point x="315" y="-15" type="curve" smooth="yes"/>
      <point x="404" y="-15"/>
      <point x="478" y="47"/>
      <point x="482" y="166" type="curve" smooth="yes"/>
      <point x="484" y="236"/>
      <point x="484" y="267"/>
      <point x="482" y="330" type="curve" smooth="yes"/>
      <point x="479" y="435"/>
      <point x="419" y="500"/>
      <point x="320" y="500" type="curve" smooth="yes"/>
      <point x="253" y="500"/>
      <point x="202" y="464"/>
      <point x="180" y="421" type="curve"/>
      <point x="180" y="750" type="line"/>
    </contour>
    <contour>
      <point x="294" y="430" type="curve" smooth="yes"/>
      <point x="361" y="430"/>
      <point x="394" y="397"/>
      <point x="397" y="331" type="curve" smooth="yes"/>
      <point x="400" y="273"/>
      <point x="400" y="220"/>
      <point x="397" y="162" type="curve" smooth="yes"/>
      <point x="393" y="91"/>
      <point x="355" y="55"/>
      <point x="300" y="55" type="curve" smooth="yes"/>
      <point x="237" y="55"/>
      <point x="180" y="83"/>
      <point x="180" y="170" type="curve" smooth="yes"/>
      <point x="180" y="331" type="line"/>
      <point x="183" y="378"/>
      <point x="229" y="430"/>
    </contour>
  </outline>
</glyph>
<glyph name="IJ" format="1">
  <advance width="601"/>
  <unicode hex="0132"/>
  <outline>
    <contour>
      <point x="415" y="700" type="line"/>
      <point x="415" y="700"/>
      <point x="417" y="114"/>
      <point x="415" y="35" type="curve" smooth="yes"/>
      <point x="412" y="-53"/>
      <point x="375" y="-95"/>
      <point x="304" y="-95" type="curve" smooth="yes"/>
      <point x="236" y="-95"/>
      <point x="188" y="-42"/>
      <point x="185" y="35" type="curve"/>
      <point x="95" y="35" type="line"/>
      <point x="98" y="-87"/>
      <point x="183" y="-170"/>
      <point x="304" y="-170" type="curve" smooth="yes"/>
      <point x="419" y="-170"/>
      <point x="501" y="-99"/>
      <point x="505" y="35" type="curve" smooth="yes"/>
      <point x="508" y="133"/>
      <point x="505" y="700"/>
      <point x="505" y="700" type="curve"/>
    </contour>
    <contour>
      <point x="185" y="700" type="line"/>
      <point x="95" y="700" type="line"/>
      <point x="95" y="115" type="line"/>
      <point x="185" y="115" type="line"/>
    </contour>
  </outline>
</glyph>
<glyph name="circumflex" format="1">
  <advance width="485"/>
  <unicode hex="02C6"/>
  <outline>
    <contour>
      <point x="213" y="700" type="line"/>
      <point x="92" y="550" type="line"/>
      <point x="170" y="550" type="line"/>
      <point x="239" y="634" type="line"/>
      <point x="307" y="550" type="line"/>
      <point x="387" y="550" type="line"/>
      <point x="266" y="700" type="line"/>
    </contour>
  </outline>
</glyph>
<glyph name="breve" format="1">
  <advance width="438"/>
  <unicode hex="02D8"/>
  <outline>
    <contour>
      <point x="219" y="611" type="curve" smooth="yes"/>
      <point x="173" y="611"/>
      <point x="148" y="640"/>
      <point x="143" y="700" type="curve"/>
      <point x="78" y="700" type="line"/>
      <point x="73" y="603"/>
      <point x="141" y="546"/>
      <point x="219" y="546" type="curve" smooth="yes"/>
      <point x="297" y="546"/>
      <point x="365" y="603"/>
      <point x="360" y="700" type="curve"/>
      <point x="295" y="700" type="line"/>
      <point x="290" y="640"/>
      <point x="266" y="611"/>
    </contour>
  </outline>
</glyph>
<glyph name="dotaccent" format="1">
  <advance width="268"/>
  <unicode hex="02D9"/>
  <outline>
    <contour>
      <point x="77" y="659" type="curve" smooth="yes"/>
      <point x="77" y="625"/>
      <point x="101" y="601"/>
      <point x="133" y="601" type="curve" smooth="yes"/>
      <point x="167" y="601"/>
      <point x="191" y="625"/>
      <point x="191" y="659" type="curve" smooth="yes"/>
      <point x="191" y="691"/>
      <point x="167" y="715"/>
      <point x="133" y="715" type="curve" smooth="yes"/>
      <point x="101" y="715"/>
      <point x="77" y="691"/>
    </contour>
  </outline>
</glyph>
<glyph name="Omega" format="1">
  <advance width="659"/>
  <unicode hex="03A9"/>
  <unicode hex="2126"/>
  <outline>
    <contour>
      <point x="487" y="70" type="line"/>
      <point x="537" y="86"/>
      <point x="574" y="148"/>
      <point x="579" y="232" type="curve" smooth="yes"/>
      <point x="584" y="319"/>
      <point x="581" y="381"/>
      <point x="579" y="470" type="curve" smooth="yes"/>
      <point x="575" y="630"/>
      <point x="464" y="715"/>
      <point x="331" y="715" type="curve" smooth="yes"/>
      <point x="198" y="715"/>
      <point x="85" y="630"/>
      <point x="80" y="470" type="curve" smooth="yes"/>
      <point x="78" y="383"/>
      <point x="76" y="324"/>
      <point x="80" y="232" type="curve" smooth="yes"/>
      <point x="84" y="143"/>
      <point x="126" y="81"/>
      <point x="168" y="70" type="curve"/>
      <point x="42" y="70" type="line"/>
      <point x="47" y="0" type="line"/>
      <point x="297" y="0" type="line"/>
      <point x="297" y="70" type="line"/>
      <point x="218" y="70"/>
      <point x="174" y="125"/>
      <point x="170" y="233" type="curve" smooth="yes"/>
      <point x="167" y="325"/>
      <point x="168" y="388"/>
      <point x="170" y="467" type="curve" smooth="yes"/>
      <point x="172" y="585"/>
      <point x="245" y="640"/>
      <point x="331" y="640" type="curve" smooth="yes"/>
      <point x="416" y="640"/>
      <point x="486" y="586"/>
      <point x="489" y="467" type="curve" smooth="yes"/>
      <point x="492" y="371"/>
      <point x="492" y="318"/>
      <point x="489" y="233" type="curve" smooth="yes"/>
      <point x="485" y="117"/>
      <point x="443" y="72"/>
      <point x="366" y="70" type="curve"/>
      <point x="366" y="0" type="line"/>
      <point x="612" y="0" type="line"/>
      <point x="617" y="70" type="line"/>
    </contour>
  </outline>
</glyph>
<glyph name="pi" format="1">
  <advance width="576"/>
  <unicode hex="03C0"/>
  <outline>
    <contour>
      <point x="459" y="0" type="line"/>
      <point x="459" y="445" type="line"/>
      <point x="534" y="445" type="line"/>
      <point x="534" y="505" type="line"/>
      <point x="42" y="505" type="line"/>
      <point x="42" y="445" type="line"/>
      <point x="117" y="445" type="line"/>
      <point x="117" y="0" type="line"/>
      <point x="197" y="0" type="line"/>
      <point x="197" y="445" type="line"/>
      <point x="379" y="445" type="line"/>
      <point x="379" y="0" type="line"/>
    </contour>
  </outline>
</glyph>
<glyph name="guilsinglleft" format="1">
  <advance width="302"/>
  <unicode hex="2039"/>
  <outline>
    <contour>
      <point x="140" y="249" type="line"/>
      <point x="140" y="255" type="line"/>
      <point x="274" y="374" type="line"/>
      <point x="234" y="425" type="line"/>
      <point x="47" y="255" type="line"/>
      <point x="47" y="248" type="line"/>
      <point x="231" y="70" type="line"/>
      <point x="275" y="120" type="line"/>
    </contour>
  </outline>
</glyph>
<glyph name="guilsinglright" format="1">
  <advance width="299"/>
  <unicode hex="203A"/>
  <outline>
    <contour>
      <point x="157" y="246" type="line"/>
      <point x="157" y="239" type="line"/>
      <point x="28" y="119" type="line"/>
      <point x="68" y="69" type="line"/>
      <point x="252" y="239" type="line"/>
      <point x="252" y="246" type="line"/>
      <point x="71" y="424" type="line"/>
      <point x="27" y="375" type="line"/>
    </contour>
  </outline>
</glyph>
<glyph name="zerosuperior" format="1">
  <advance width="417"/>
  <unicode hex="2070"/>
  <outline>
    <contour>
      <point x="354" y="525" type="curve" smooth="yes"/>
      <point x="355" y="575"/>
      <point x="355" y="611"/>
      <point x="354" y="652" type="curve" smooth="yes"/>
      <point x="352" y="739"/>
      <point x="292" y="795"/>
      <point x="209" y="795" type="curve" smooth="yes"/>
      <point x="125" y="795"/>
      <point x="64" y="739"/>
      <point x="63" y="652" type="curve" smooth="yes"/>
      <point x="62" y="611"/>
      <point x="62" y="575"/>
      <point x="63" y="525" type="curve" smooth="yes"/>
      <point x="64" y="437"/>
      <point x="123" y="380"/>
      <point x="207" y="380" type="curve" smooth="yes"/>
      <point x="290" y="380"/>
      <point x="352" y="437"/>
    </contour>
    <contour>
      <point x="284" y="652" type="curve" smooth="yes"/>
      <point x="285" y="611"/>
      <point x="285" y="566"/>
      <point x="284" y="525" type="curve" smooth="yes"/>
      <point x="282" y="467"/>
      <point x="251" y="435"/>
      <point x="209" y="435" type="curve" smooth="yes"/>
      <point x="167" y="435"/>
      <point x="134" y="467"/>
      <point x="133" y="525" type="curve" smooth="yes"/>
      <point x="132" y="566"/>
      <point x="132" y="611"/>
      <point x="133" y="652" type="curve" smooth="yes"/>
      <point x="134" y="707"/>
      <point x="163" y="740"/>
      <point x="209" y="740" type="curve" smooth="yes"/>
      <point x="255" y="740"/>
      <point x="282" y="707"/>
    </contour>
  </outline>
</glyph>
<glyph name="sevensuperior" format="1">
  <advance width="339"/>
  <unicode hex="2077"/>
  <outline>
    <contour>
      <point x="293" y="785" type="line"/>
      <point x="22" y="785" type="line"/>
      <point x="22" y="730" type="line"/>
      <point x="223" y="730" type="line"/>
      <point x="68" y="390" type="line"/>
      <point x="141" y="390" type="line"/>
      <point x="297" y="747" type="line"/>
    </contour>
  </outline>
</glyph>
<glyph name="ninesuperior" format="1">
  <advance width="380"/>
  <unicode hex="2079"/>
  <outline>
    <contour>
      <point x="329" y="505" type="curve" smooth="yes"/>
      <point x="335" y="554"/>
      <point x="333" y="617"/>
      <point x="329" y="662" type="curve" smooth="yes"/>
      <point x="321" y="745"/>
      <point x="263" y="795"/>
      <point x="189" y="795" type="curve" smooth="yes"/>
      <point x="109" y="795"/>
      <point x="52" y="734"/>
      <point x="52" y="656" type="curve" smooth="yes"/>
      <point x="52" y="576"/>
      <point x="110" y="530"/>
      <point x="172" y="530" type="curve" smooth="yes"/>
      <point x="247" y="530"/>
      <point x="267" y="585"/>
      <point x="267" y="585" type="curve"/>
      <point x="267" y="559"/>
      <point x="267" y="532"/>
      <point x="264" y="505" type="curve" smooth="yes"/>
      <point x="259" y="463"/>
      <point x="233" y="435"/>
      <point x="191" y="435" type="curve" smooth="yes"/>
      <point x="150" y="435"/>
      <point x="116" y="459"/>
      <point x="116" y="499" type="curve"/>
      <point x="56" y="494" type="line"/>
      <point x="56" y="428"/>
      <point x="112" y="380"/>
      <point x="191" y="380" type="curve" smooth="yes"/>
      <point x="269" y="380"/>
      <point x="320" y="426"/>
    </contour>
    <contour>
      <point x="265" y="656" type="curve" smooth="yes"/>
      <point x="265" y="616"/>
      <point x="231" y="580"/>
      <point x="187" y="580" type="curve" smooth="yes"/>
      <point x="146" y="580"/>
      <point x="117" y="613"/>
      <point x="117" y="661" type="curve" smooth="yes"/>
      <point x="117" y="709"/>
      <point x="147" y="740"/>
      <point x="189" y="740" type="curve" smooth="yes"/>
      <point x="237" y="740"/>
      <point x="265" y="697"/>
    </contour>
  </outline>
</glyph>
<glyph name="nsuperior" format="1">
  <advance width="373"/>
  <unicode hex="207F"/>
  <outline>
    <contour>
      <point x="131" y="599" type="line"/>
      <point x="131" y="624"/>
      <point x="161" y="660"/>
      <point x="206" y="660" type="curve" smooth="yes"/>
      <point x="244" y="660"/>
      <point x="266" y="641"/>
      <point x="266" y="593" type="curve" smooth="yes"/>
      <point x="266" y="390" type="line"/>
      <point x="331" y="390" type="line"/>
      <point x="331" y="600" type="line" smooth="yes"/>
      <point x="331" y="668"/>
      <point x="290" y="710"/>
      <point x="224" y="710" type="curve" smooth="yes"/>
      <point x="183" y="710"/>
      <point x="152" y="692"/>
      <point x="129" y="662" type="curve"/>
      <point x="117" y="704"/>
      <point x="65" y="712"/>
      <point x="27" y="700" type="curve"/>
      <point x="27" y="655" type="line"/>
      <point x="48" y="655"/>
      <point x="66" y="650"/>
      <point x="66" y="625" type="curve" smooth="yes"/>
      <point x="66" y="390" type="line"/>
      <point x="131" y="390" type="line"/>
    </contour>
  </outline>
</glyph>
<glyph name="arrowright" format="1">
  <advance width="730"/>
  <unicode hex="2192"/>
  <outline>
    <contour>
      <point x="378" y="45" type="line"/>
      <point x="427" y="-9" type="line"/>
      <point x="724" y="265" type="line"/>
      <point x="724" y="271" type="line"/>
      <point x="427" y="543" type="line"/>
      <point x="375" y="488" type="line"/>
      <point x="555" y="329" type="line"/>
      <point x="595" y="303" type="line"/>
      <point x="19" y="304" type="line"/>
      <point x="19" y="229" type="line"/>
      <point x="594" y="230" type="line"/>
      <point x="553" y="203" type="line"/>
    </contour>
  </outline>
</glyph>
<glyph name="arrowupright" format="1">
  <advance width="730"/>
  <unicode hex="2197"/>
  <outline>
    <contour>
      <point x="545" y="162" type="line"/>
      <point x="613" y="162" type="line"/>
      <point x="613" y="557" type="line"/>
      <point x="605" y="565" type="line"/>
      <point x="238" y="565" type="line"/>
      <point x="239" y="503" type="line"/>
      <point x="513" y="503" type="line"/>
      <point x="477" y="476" type="line"/>
      <point x="105" y="74" type="line"/>
      <point x="156" y="25" type="line"/>
      <point x="517" y="418" type="line"/>
      <point x="545" y="460" type="line"/>
    </contour>
  </outline>
</glyph>
<glyph name="infinity" format="1">
  <advance width="773"/>
  <unicode hex="221E"/>
  <outline>
    <contour>
      <point x="465" y="283" type="line"/>
      <point x="465" y="283"/>
      <point x="495" y="335"/>
      <point x="558" y="335" type="curve" smooth="yes"/>
      <point x="609" y="335"/>
      <point x="641" y="300"/>
      <point x="641" y="250" type="curve" smooth="yes"/>
      <point x="641" y="201"/>
      <point x="612" y="165"/>
      <point x="565" y="165" type="curve" smooth="yes"/>
      <point x="464" y="165"/>
      <point x="385" y="405"/>
      <point x="225" y="405" type="curve" smooth="yes"/>
      <point x="123" y="405"/>
      <point x="52" y="335"/>
      <point x="52" y="249" type="curve" smooth="yes"/>
      <point x="52" y="164"/>
      <point x="114" y="95"/>
      <point x="209" y="95" type="curve" smooth="yes"/>
      <point x="305" y="95"/>
      <point x="337" y="187"/>
      <point x="337" y="187" type="curve"/>
      <point x="307" y="220" type="line"/>
      <point x="307" y="220"/>
      <point x="287" y="165"/>
      <point x="218" y="165" type="curve" smooth="yes"/>
      <point x="165" y="165"/>
      <point x="132" y="200"/>
      <point x="132" y="250" type="curve" smooth="yes"/>
      <point x="132" y="307"/>
      <point x="169" y="335"/>
      <point x="217" y="335" type="curve" smooth="yes"/>
      <point x="327" y="335"/>
      <point x="397" y="95"/>
      <point x="562" y="95" type="curve" smooth="yes"/>
      <point x="661" y="95"/>
      <point x="721" y="169"/>
      <point x="721" y="255" type="curve" smooth="yes"/>
      <point x="721" y="335"/>
      <point x="668" y="405"/>
      <point x="568" y="405" type="curve" smooth="yes"/>
      <point x="467" y="405"/>
      <point x="436" y="323"/>
      <point x="436" y="323" type="curve"/>
    </contour>
  </outline>
</glyph>
<glyph name="notequal" format="1">
  <advance width="549"/>
  <unicode hex="2260"/>
  <outline>
    <contour>
      <point x="52" y="408" type="line"/>
      <point x="52" y="333" type="line"/>
      <point x="270" y="333" type="line"/>
      <point x="207" y="198" type="line"/>
      <point x="52" y="198" type="line"/>
      <point x="52" y="123" type="line"/>
      <point x="171" y="123" type="line"/>
      <point x="108" y="-15" type="line"/>
      <point x="182" y="-15" type="line"/>
      <point x="246" y="123" type="line"/>
      <point x="497" y="123" type="line"/>
      <point x="497" y="198" type="line"/>
      <point x="281" y="198" type="line"/>
      <point x="343" y="333" type="line"/>
      <point x="497" y="333" type="line"/>
      <point x="497" y="408" type="line"/>
      <point x="377" y="408" type="line"/>
      <point x="430" y="520" type="line"/>
      <point x="357" y="520" type="line"/>
      <point x="304" y="408" type="line"/>
    </contour>
  </outline>
</glyph>
<glyph name="lessequal" format="1">
  <advance width="513"/>
  <unicode hex="2264"/>
  <outline>
    <contour>
      <point x="52" y="0" type="line"/>
      <point x="440" y="0" type="line"/>
      <point x="440" y="65" type="line"/>
      <point x="52" y="65" type="line"/>
    </contour>
    <component base="less" yOffset="113"/>
  </outline>
</glyph>
<glyph name="uni2460" format="1">
  <advance width="779"/>
  <unicode hex="2460"/>
  <outline>
    <contour>
      <point x="52" y="330" type="curve" smooth="yes"/>
      <point x="52" y="145"/>
      <point x="201" y="-15"/>
      <point x="390" y="-15" type="curve" smooth="yes"/>
      <point x="578" y="-15"/>
      <point x="727" y="145"/>
      <point x="727" y="330" type="curve" smooth="yes"/>
      <point x="727" y="515"/>
      <point x="578" y="675"/>
      <point x="390" y="675" type="curve" smooth="yes"/>
      <point x="201" y="675"/>
      <point x="52" y="515"/>
    </contour>
    <contour>
      <point x="433" y="201" type="line"/>
      <point x="507" y="196" type="line"/>
      <point x="507" y="145" type="line"/>
      <point x="287" y="145" type="line"/>
      <point x="287" y="196" type="line"/>
      <point x="363" y="201" type="line"/>
      <point x="363" y="480" type="line"/>
      <point x="293" y="474" type="line"/>
      <point x="287" y="520" type="line"/>
      <point x="402" y="545" type="line"/>
      <point x="433" y="540" type="line"/>
    </contour>
  </outline>
</glyph>
<glyph name="uni2464" format="1">
  <advance width="779"/>
  <unicode hex="2464"/>
  <outline>
    <contour>
      <point x="52" y="330" type="curve" smooth="yes"/>
      <point x="52" y="146"/>
      <point x="201" y="-15"/>
      <point x="390" y="-15" type="curve" smooth="yes"/>
      <point x="578" y="-15"/>
      <point x="727" y="146"/>
      <point x="727" y="330" type="curve" smooth="yes"/>
      <point x="727" y="514"/>
      <point x="578" y="675"/>
      <point x="390" y="675" type="curve" smooth="yes"/>
      <point x="201" y="675"/>
      <point x="52" y="514"/>
    </contour>
    <contour>
      <point x="526" y="272" type="curve" smooth="yes"/>
      <point x="526" y="185"/>
      <point x="464" y="135"/>
      <point x="385" y="135" type="curve" smooth="yes"/>
      <point x="313" y="135"/>
      <point x="249" y="174"/>
      <point x="249" y="255" type="curve"/>
      <point x="309" y="260" type="line"/>
      <point x="309" y="215"/>
      <point x="341" y="190"/>
      <point x="385" y="190" type="curve" smooth="yes"/>
      <point x="429" y="190"/>
      <point x="456" y="221"/>
      <point x="456" y="270" type="curve" smooth="yes"/>
      <point x="456" y="323"/>
      <point x="426" y="349"/>
      <point x="380" y="349" type="curve" smooth="yes"/>
      <point x="352" y="349"/>
      <point x="330" y="336"/>
      <point x="319" y="321" type="curve"/>
      <point x="266" y="326" type="line"/>
      <point x="290" y="540" type="line"/>
      <point x="499" y="540" type="line"/>
      <point x="499" y="485" type="line"/>
      <point x="340" y="485" type="line"/>
      <point x="328" y="369" type="line"/>
      <point x="328" y="369"/>
      <point x="359" y="399"/>
      <point x="404" y="399" type="curve" smooth="yes"/>
      <point x="473" y="399"/>
      <point x="526" y="349"/>
    </contour>
  </outline>
</glyph>
<glyph name="uni2466" format="1">
  <advance width="779"/>
  <unicode hex="2466"/>
  <outline>
    <contour>
      <point x="52" y="330" type="curve" smooth="yes"/>
      <point x="52" y="146"/>
      <point x="201" y="-15"/>
      <point x="390" y="-15" type="curve" smooth="yes"/>
      <point x="578" y="-15"/>
      <point x="727" y="146"/>
      <point x="727" y="330" type="curve" smooth="yes"/>
      <point x="727" y="514"/>
      <point x="578" y="675"/>
      <point x="390" y="675" type="curve" smooth="yes"/>
      <point x="201" y="675"/>
      <point x="52" y="514"/>
    </contour>
    <contour>
      <point x="535" y="502" type="line"/>
      <point x="379" y="145" type="line"/>
      <point x="306" y="145" type="line"/>
      <point x="461" y="485" type="line"/>
      <point x="260" y="485" type="line"/>
      <point x="260" y="540" type="line"/>
      <point x="531" y="540" type="line"/>
    </contour>
  </outline>
</glyph>
<glyph name="uni261E" format="1">
  <advance width="1347"/>
  <unicode hex="261E"/>
  <outline>
    <contour>
      <point x="1267" y="519" type="curve" smooth="yes"/>
      <point x="1022" y="536"/>
      <point x="837" y="536"/>
      <point x="837" y="536" type="curve"/>
      <point x="770" y="573"/>
      <point x="712" y="611"/>
      <point x="637" y="611" type="curve" smooth="yes"/>
      <point x="490" y="611"/>
      <point x="348" y="471"/>
      <point x="275" y="471" type="curve" smooth="yes"/>
      <point x="245" y="471"/>
      <point x="75" y="477"/>
      <point x="75" y="477" type="curve"/>
      <point x="52" y="477"/>
      <point x="43" y="46"/>
      <point x="65" y="46" type="curve"/>
      <point x="304" y="52" type="line"/>
      <point x="366" y="-33"/>
      <point x="531" y="-1"/>
      <point x="531" y="-1" type="curve"/>
      <point x="675" y="-15"/>
      <point x="860" y="-54"/>
      <point x="853" y="94" type="curve"/>
      <point x="927" y="110"/>
      <point x="949" y="175"/>
      <point x="935" y="227" type="curve"/>
      <point x="1005" y="273"/>
      <point x="991" y="365"/>
      <point x="949" y="380" type="curve"/>
      <point x="949" y="380"/>
      <point x="1222" y="389"/>
      <point x="1267" y="395" type="curve" smooth="yes"/>
      <point x="1339" y="404"/>
      <point x="1336" y="513"/>
    </contour>
    <contour>
      <point x="98" y="242" type="curve" smooth="yes"/>
      <point x="97" y="262"/>
      <point x="95" y="441"/>
      <point x="109" y="441" type="curve" smooth="yes"/>
      <point x="121" y="441"/>
      <point x="212" y="438"/>
      <point x="272" y="436" type="curve"/>
      <point x="296" y="436"/>
      <point x="323" y="446"/>
      <point x="323" y="446" type="curve"/>
      <point x="290" y="397"/>
      <point x="297" y="319"/>
      <point x="326" y="285" type="curve"/>
      <point x="326" y="285"/>
      <point x="302" y="233"/>
      <point x="271" y="172" type="curve" smooth="yes"/>
      <point x="233" y="97"/>
      <point x="107" y="66"/>
    </contour>
    <contour>
      <point x="642" y="455" type="curve"/>
      <point x="531" y="455"/>
      <point x="582" y="330"/>
      <point x="459" y="295" type="curve"/>
      <point x="463" y="268" type="line"/>
      <point x="538" y="224"/>
      <point x="511" y="34"/>
      <point x="421" y="34" type="curve" smooth="yes"/>
      <point x="369" y="34"/>
      <point x="318" y="77"/>
      <point x="318" y="147" type="curve" smooth="yes"/>
      <point x="318" y="236"/>
      <point x="372" y="259"/>
      <point x="404" y="264" type="curve"/>
      <point x="407" y="264"/>
      <point x="403" y="291"/>
      <point x="403" y="291" type="curve"/>
      <point x="316" y="298"/>
      <point x="331" y="438"/>
      <point x="394" y="480" type="curve" smooth="yes"/>
      <point x="492" y="546"/>
      <point x="567" y="577"/>
      <point x="631" y="577" type="curve" smooth="yes"/>
      <point x="696" y="577"/>
      <point x="718" y="565"/>
      <point x="823" y="505" type="curve"/>
      <point x="884" y="477"/>
      <point x="962" y="433"/>
      <point x="962" y="433" type="curve"/>
      <point x="968" y="432"/>
      <point x="938" y="386"/>
      <point x="895" y="386" type="curve" smooth="yes"/>
      <point x="795" y="386"/>
      <point x="750" y="455"/>
    </contour>
    <contour>
      <point x="757" y="21" type="curve" smooth="yes"/>
      <point x="731" y="24"/>
      <point x="623" y="48"/>
      <point x="585" y="59" type="curve" smooth="yes"/>
      <point x="550" y="70"/>
      <point x="568" y="135"/>
      <point x="604" y="127" type="curve" smooth="yes"/>
      <point x="643" y="119"/>
      <point x="800" y="97"/>
      <point x="800" y="97" type="curve" smooth="yes"/>
      <point x="829" y="93"/>
      <point x="820" y="14"/>
    </contour>
    <contour>
      <point x="850" y="135" type="curve" smooth="yes"/>
      <point x="775" y="135"/>
      <point x="664" y="161"/>
      <point x="609" y="173" type="curve" smooth="yes"/>
      <point x="573" y="181"/>
      <point x="580" y="250"/>
      <point x="616" y="250" type="curve" smooth="yes"/>
      <point x="646" y="250"/>
      <point x="820" y="228"/>
      <point x="871" y="220" type="curve" smooth="yes"/>
      <point x="921" y="212"/>
      <point x="902" y="135"/>
    </contour>
    <contour>
      <point x="903" y="258" type="curve" smooth="yes"/>
      <point x="881" y="257"/>
      <point x="649" y="286"/>
      <point x="628" y="291" type="curve" smooth="yes"/>
      <point x="587" y="302"/>
      <point x="598" y="372"/>
      <point x="647" y="372" type="curve" smooth="yes"/>
      <point x="700" y="372"/>
      <point x="893" y="357"/>
      <point x="917" y="350" type="curve" smooth="yes"/>
      <point x="963" y="337"/>
      <point x="944" y="259"/>
    </contour>
    <contour>
      <point x="1255" y="427" type="curve" smooth="yes"/>
      <point x="1207" y="423"/>
      <point x="1165" y="421"/>
      <point x="1135" y="421" type="curve" smooth="yes"/>
      <point x="1036" y="421"/>
      <point x="1012" y="444"/>
      <point x="897" y="505" type="curve"/>
      <point x="897" y="505"/>
      <point x="1148" y="495"/>
      <point x="1254" y="489" type="curve" smooth="yes"/>
      <point x="1290" y="487"/>
      <point x="1294" y="430"/>
    </contour>
  </outline>
</glyph>
<glyph name="circumflex.cap" format="1">
  <advance width="485"/>
  <outline>
    <contour>
      <point x="219" y="715" type="line"/>
      <point x="104" y="585" type="line"/>
      <point x="176" y="585" type="line"/>
      <point x="238" y="654" type="line"/>
      <point x="299" y="585" type="line"/>
      <point x="375" y="585" type="line"/>
      <point x="262" y="715" type="line"/>
    </contour>
  </outline>
</glyph>
<glyph name="ct" format="1">
  <advance width="836"/>
  <outline>
    <contour>
      <point x="672" y="138" type="curve"/>
      <point x="672" y="425" type="line"/>
      <point x="806" y="425" type="line"/>
      <point x="806" y="485" type="line"/>
      <point x="672" y="485" type="line"/>
      <point x="672" y="544" type="line" smooth="yes"/>
      <point x="671" y="692"/>
      <point x="582" y="750"/>
      <point x="475" y="750" type="curve" smooth="yes"/>
      <point x="343" y="750"/>
      <point x="272" y="633"/>
      <point x="300" y="531" type="curve"/>
      <point x="314" y="530"/>
      <point x="348" y="524"/>
      <point x="366" y="512" type="curve"/>
      <point x="340" y="587"/>
      <point x="368" y="680"/>
      <point x="475" y="680" type="curve" smooth="yes"/>
      <point x="542" y="680"/>
      <point x="587" y="643"/>
      <point x="587" y="548" type="curve" smooth="yes"/>
      <point x="587" y="485" type="line"/>
      <point x="517" y="485" type="line"/>
      <point x="517" y="425" type="line"/>
      <point x="587" y="425" type="line"/>
      <point x="587" y="134" type="line" smooth="yes"/>
      <point x="587" y="24"/>
      <point x="655" y="-15"/>
      <point x="726" y="-15" type="curve" smooth="yes"/>
      <point x="751" y="-15"/>
      <point x="794" y="-11"/>
      <point x="821" y="0" type="curve"/>
      <point x="817" y="60" type="line"/>
      <point x="817" y="60"/>
      <point x="787" y="55"/>
      <point x="755" y="55" type="curve" smooth="yes"/>
      <point x="712" y="55"/>
      <point x="672" y="65"/>
    </contour>
    <component base="c"/>
  </outline>
</glyph>
<glyph name="dieresis.cap" format="1">
  <advance width="466"/>
  <outline>
    <contour>
      <point x="96" y="657" type="curve" smooth="yes"/>
      <point x="96" y="628"/>
      <point x="117" y="608"/>
      <point x="145" y="608" type="curve" smooth="yes"/>
      <point x="175" y="608"/>
      <point x="196" y="628"/>
      <point x="196" y="657" type="curve" smooth="yes"/>
      <point x="196" y="686"/>
      <point x="175" y="707"/>
      <point x="145" y="707" type="curve" smooth="yes"/>
      <point x="117" y="707"/>
      <point x="96" y="686"/>
    </contour>
    <contour>
      <point x="266" y="657" type="curve" smooth="yes"/>
      <point x="266" y="628"/>
      <point x="286" y="608"/>
      <point x="314" y="608" type="curve" smooth="yes"/>
      <point x="344" y="608"/>
      <point x="366" y="628"/>
      <point x="366" y="657" type="curve" smooth="yes"/>
      <point x="366" y="686"/>
      <point x="344" y="707"/>
      <point x="314" y="707" type="curve" smooth="yes"/>
      <point x="286" y="707"/>
      <point x="266" y="686"/>
    </contour>
  </outline>
</glyph>
<glyph name="dsuperior" format="1">
  <advance width="382"/>
  <outline>
    <contour>
      <point x="248" y="507" type="line"/>
      <point x="248" y="453"/>
      <point x="214" y="430"/>
      <point x="173" y="430" type="curve" smooth="yes"/>
      <point x="134" y="430"/>
      <point x="111" y="450"/>
      <point x="109" y="496" type="curve" smooth="yes"/>
      <point x="107" y="533"/>
      <point x="108" y="553"/>
      <point x="108" y="586" type="curve" smooth="yes"/>
      <point x="108" y="634"/>
      <point x="135" y="660"/>
      <point x="173" y="660" type="curve" smooth="yes"/>
      <point x="216" y="660"/>
      <point x="248" y="634"/>
      <point x="248" y="578" type="curve" smooth="yes"/>
    </contour>
    <contour>
      <point x="253" y="430" type="curve"/>
      <point x="264" y="378"/>
      <point x="328" y="377"/>
      <point x="355" y="390" type="curve"/>
      <point x="355" y="435" type="line"/>
      <point x="327" y="435"/>
      <point x="313" y="439"/>
      <point x="313" y="467" type="curve" smooth="yes"/>
      <point x="313" y="850" type="line"/>
      <point x="248" y="828" type="line"/>
      <point x="248" y="671" type="line"/>
      <point x="231" y="695"/>
      <point x="201" y="710"/>
      <point x="164" y="710" type="curve" smooth="yes"/>
      <point x="102" y="710"/>
      <point x="46" y="676"/>
      <point x="43" y="589" type="curve" smooth="yes"/>
      <point x="42" y="554"/>
      <point x="42" y="528"/>
      <point x="44" y="490" type="curve" smooth="yes"/>
      <point x="48" y="416"/>
      <point x="97" y="380"/>
      <point x="159" y="380" type="curve" smooth="yes"/>
      <point x="207" y="380"/>
      <point x="238" y="402"/>
    </contour>
  </outline>
</glyph>
<glyph name="eightprop" format="1">
  <advance width="599"/>
  <outline>
    <contour>
      <point x="300" y="-15" type="curve" smooth="yes"/>
      <point x="158" y="-15"/>
      <point x="72" y="80"/>
      <point x="72" y="195" type="curve" smooth="yes"/>
      <point x="72" y="270"/>
      <point x="121" y="341"/>
      <point x="193" y="365" type="curve"/>
      <point x="131" y="394"/>
      <point x="88" y="447"/>
      <point x="88" y="517" type="curve" smooth="yes"/>
      <point x="88" y="647"/>
      <point x="190" y="715"/>
      <point x="300" y="715" type="curve" smooth="yes"/>
      <point x="410" y="715"/>
      <point x="511" y="647"/>
      <point x="511" y="517" type="curve" smooth="yes"/>
      <point x="511" y="447"/>
      <point x="468" y="394"/>
      <point x="406" y="365" type="curve"/>
      <point x="478" y="341"/>
      <point x="527" y="270"/>
      <point x="527" y="195" type="curve" smooth="yes"/>
      <point x="527" y="80"/>
      <point x="442" y="-15"/>
    </contour>
    <contour>
      <point x="300" y="395" type="curve" smooth="yes"/>
      <point x="379" y="395"/>
      <point x="421" y="452"/>
      <point x="421" y="518" type="curve" smooth="yes"/>
      <point x="421" y="584"/>
      <point x="379" y="640"/>
      <point x="300" y="640" type="curve" smooth="yes"/>
      <point x="221" y="640"/>
      <point x="178" y="584"/>
      <point x="178" y="518" type="curve" smooth="yes"/>
      <point x="178" y="452"/>
      <point x="221" y="395"/>
    </contour>
    <contour>
      <point x="300" y="60" type="curve" smooth="yes"/>
      <point x="388" y="60"/>
      <point x="437" y="123"/>
      <point x="437" y="195" type="curve" smooth="yes"/>
      <point x="437" y="265"/>
      <point x="390" y="325"/>
      <point x="300" y="325" type="curve" smooth="yes"/>
      <point x="210" y="325"/>
      <point x="162" y="265"/>
      <point x="162" y="195" type="curve" smooth="yes"/>
      <point x="162" y="123"/>
      <point x="212" y="60"/>
    </contour>
  </outline>
</glyph>
<glyph name="exclamsmall" format="1">
  <advance width="230"/>
  <outline>
    <contour>
      <point x="66" y="530" type="line"/>
      <point x="86" y="175" type="line"/>
      <point x="147" y="175" type="line"/>
      <point x="169" y="572" type="line"/>
    </contour>
    <contour>
      <point x="52" y="46" type="curve" smooth="yes"/>
      <point x="52" y="11"/>
      <point x="79" y="-15"/>
      <point x="114" y="-15" type="curve" smooth="yes"/>
      <point x="150" y="-15"/>
      <point x="178" y="11"/>
      <point x="178" y="46" type="curve" smooth="yes"/>
      <point x="178" y="82"/>
      <point x="150" y="110"/>
      <point x="114" y="110" type="curve" smooth="yes"/>
      <point x="79" y="110"/>
      <point x="52" y="82"/>
    </contour>
  </outline>
</glyph>
<glyph name="g.alt" format="1">
  <advance width="540"/>
  <outline>
    <contour>
      <point x="457" y="455" type="move"/>
      <point x="430" y="474"/>
      <point x="363" y="500"/>
      <point x="282" y="500" type="curve" smooth="yes"/>
      <point x="156" y="500"/>
      <point x="83" y="442"/>
      <point x="77" y="310" type="curve" smooth="yes"/>
      <point x="74" y="256"/>
      <point x="74" y="239"/>
      <point x="77" y="187" type="curve" smooth="yes"/>
      <point x="83.0" y="75.0"/>
      <point x="134.0" y="27.0"/>
      <point x="237" y="27" type="curve"/>
      <point x="201" y="13"/>
      <point x="162" y="-5"/>
      <point x="129" y="-24" type="curve" smooth="yes"/>
      <point x="84" y="-50"/>
      <point x="75.0" y="-67.0"/>
      <point x="75" y="-107" type="curve" smooth="yes"/>
      <point x="75" y="-190"/>
      <point x="137" y="-245"/>
      <point x="259" y="-245" type="curve" smooth="yes"/>
      <point x="382" y="-245"/>
      <point x="453" y="-178"/>
      <point x="454" y="-44" type="curve" smooth="yes"/>
      <point x="454.980628628" y="83.4817216374"/>
      <point x="454.0" y="463.0"/>
      <point x="454" y="463" type="curve"/>
    </contour>
    <contour>
      <point x="368" y="417" type="move"/>
      <point x="368.0" y="90.9957983193"/>
      <point x="368.978916998" y="30.2922768604"/>
      <point x="368" y="-49" type="curve" smooth="yes"/>
      <point x="367" y="-139"/>
      <point x="330" y="-175"/>
      <point x="259" y="-175" type="curve" smooth="yes"/>
      <point x="193.0" y="-175.0"/>
      <point x="159" y="-148"/>
      <point x="159" y="-101" type="curve" smooth="yes"/>
      <point x="159" y="-75"/>
      <point x="164.316398175" y="-60.4272511407"/>
      <point x="189" y="-45" type="curve" smooth="yes"/>
      <point x="223" y="-24"/>
      <point x="270" y="-1"/>
      <point x="308" y="15" type="curve"/>
      <point x="308" y="85" type="line"/>
      <point x="266" y="85" type="line" smooth="yes"/>
      <point x="199" y="85"/>
      <point x="166" y="123"/>
      <point x="162" y="188" type="curve" smooth="yes"/>
      <point x="159" y="241"/>
      <point x="159" y="254"/>
      <point x="162" y="310" type="curve" smooth="yes"/>
      <point x="167" y="401"/>
      <point x="210" y="430"/>
      <point x="280" y="430" type="curve" smooth="yes"/>
      <point x="322" y="430"/>
      <point x="357" y="418"/>
      <point x="372" y="410" type="curve"/>
    </contour>
  </outline>
</glyph>
<glyph name="guillemotright.cap" format="1">
  <advance width="504"/>
  <outline>
    <contour>
      <point x="362" y="316" type="line"/>
      <point x="362" y="309" type="line"/>
      <point x="233" y="189" type="line"/>
      <point x="273" y="139" type="line"/>
      <point x="457" y="309" type="line"/>
      <point x="457" y="316" type="line"/>
      <point x="276" y="494" type="line"/>
      <point x="232" y="445" type="line"/>
    </contour>
    <contour>
      <point x="157" y="316" type="line"/>
      <point x="157" y="309" type="line"/>
      <point x="28" y="189" type="line"/>
      <point x="68" y="139" type="line"/>
      <point x="252" y="309" type="line"/>
      <point x="252" y="316" type="line"/>
      <point x="71" y="494" type="line"/>
      <point x="27" y="445" type="line"/>
    </contour>
  </outline>
</glyph>
<glyph name="guilsinglright.cap" format="1">
  <advance width="299"/>
  <outline>
    <contour>
      <point x="157" y="321" type="line"/>
      <point x="157" y="314" type="line"/>
      <point x="28" y="194" type="line"/>
      <point x="68" y="144" type="line"/>
      <point x="252" y="314" type="line"/>
      <point x="252" y="321" type="line"/>
      <point x="71" y="499" type="line"/>
      <point x="27" y="450" type="line"/>
    </contour>
  </outline>
</glyph>
<glyph name="hyphen.cap" format="1">
  <advance width="349"/>
  <outline>
    <contour>
      <point x="42" y="275" type="line"/>
      <point x="307" y="275" type="line"/>
      <point x="307" y="350" type="line"/>
      <point x="42" y="350" type="line"/>
    </contour>
  </outline>
</glyph>
<glyph name="nineprop" format="1">
  <advance width="589"/>
  <outline>
    <contour>
      <point x="67" y="487" type="curve" smooth="yes"/>
      <point x="67" y="338"/>
      <point x="169" y="272"/>
      <point x="269" y="272" type="curve" smooth="yes"/>
      <point x="353" y="272"/>
      <point x="429" y="334"/>
      <point x="438" y="413" type="curve"/>
      <point x="435" y="467" type="line"/>
      <point x="420" y="512" type="line"/>
      <point x="435" y="429"/>
      <point x="386" y="347"/>
      <point x="286" y="347" type="curve" smooth="yes"/>
      <point x="220" y="347"/>
      <point x="157" y="386"/>
      <point x="157" y="487" type="curve" smooth="yes"/>
      <point x="157" y="584"/>
      <point x="213" y="640"/>
      <point x="286" y="640" type="curve" smooth="yes"/>
      <point x="359" y="640"/>
      <point x="418" y="590"/>
      <point x="422" y="485" type="curve" smooth="yes"/>
      <point x="425" y="404"/>
      <point x="426" y="293"/>
      <point x="422" y="219" type="curve" smooth="yes"/>
      <point x="416" y="118"/>
      <point x="374" y="60"/>
      <point x="288" y="60" type="curve" smooth="yes"/>
      <point x="204" y="60"/>
      <point x="159" y="107"/>
      <point x="147" y="175" type="curve"/>
      <point x="67" y="170" type="line"/>
      <point x="75" y="51"/>
      <point x="170" y="-15"/>
      <point x="288" y="-15" type="curve" smooth="yes"/>
      <point x="412" y="-15"/>
      <point x="501" y="62"/>
      <point x="509" y="219" type="curve" smooth="yes"/>
      <point x="513" y="296"/>
      <point x="511" y="409"/>
      <point x="509" y="475" type="curve" smooth="yes"/>
      <point x="504" y="639"/>
      <point x="403" y="715"/>
      <point x="286" y="715" type="curve" smooth="yes"/>
      <point x="163" y="715"/>
      <point x="67" y="627"/>
    </contour>
  </outline>
</glyph>
<glyph name="osuperior" format="1">
  <advance width="353"/>
  <outline>
    <contour>
      <point x="309" y="499" type="curve" smooth="yes"/>
      <point x="311" y="535"/>
      <point x="311" y="559"/>
      <point x="309" y="592" type="curve" smooth="yes"/>
      <point x="305" y="660"/>
      <point x="259" y="710"/>
      <point x="177" y="710" type="curve" smooth="yes"/>
      <point x="93" y="710"/>
      <point x="47" y="660"/>
      <point x="44" y="592" type="curve" smooth="yes"/>
      <point x="42" y="553"/>
      <point x="42" y="539"/>
      <point x="44" y="499" type="curve" smooth="yes"/>
      <point x="47" y="431"/>
      <point x="96" y="380"/>
      <point x="177" y="380" type="curve" smooth="yes"/>
      <point x="257" y="380"/>
      <point x="305" y="431"/>
    </contour>
    <contour>
      <point x="244" y="591" type="curve" smooth="yes"/>
      <point x="246" y="552"/>
      <point x="246" y="534"/>
      <point x="244" y="501" type="curve" smooth="yes"/>
      <point x="242" y="457"/>
      <point x="214" y="430"/>
      <point x="177" y="430" type="curve" smooth="yes"/>
      <point x="139" y="430"/>
      <point x="112" y="457"/>
      <point x="109" y="501" type="curve" smooth="yes"/>
      <point x="107" y="533"/>
      <point x="107" y="557"/>
      <point x="109" y="591" type="curve" smooth="yes"/>
      <point x="111" y="636"/>
      <point x="139" y="660"/>
      <point x="177" y="660" type="curve" smooth="yes"/>
      <point x="215" y="660"/>
      <point x="242" y="636"/>
    </contour>
  </outline>
</glyph>
<glyph name="ring.cap" format="1">
  <advance width="371"/>
  <outline>
    <contour>
      <point x="96" y="642" type="curve" smooth="yes"/>
      <point x="96" y="589"/>
      <point x="138" y="552"/>
      <point x="185" y="552" type="curve" smooth="yes"/>
      <point x="232" y="552"/>
      <point x="275" y="589"/>
      <point x="274" y="642" type="curve" smooth="yes"/>
      <point x="273" y="696"/>
      <point x="228" y="730"/>
      <point x="185" y="730" type="curve" smooth="yes"/>
      <point x="141" y="730"/>
      <point x="96" y="697"/>
    </contour>
    <contour>
      <point x="145" y="643" type="curve" smooth="yes"/>
      <point x="145" y="668"/>
      <point x="164" y="685"/>
      <point x="185" y="685" type="curve" smooth="yes"/>
      <point x="208" y="685"/>
      <point x="225" y="665"/>
      <point x="225" y="643" type="curve" smooth="yes"/>
      <point x="225" y="616"/>
      <point x="208" y="597"/>
      <point x="185" y="597" type="curve" smooth="yes"/>
      <point x="164" y="597"/>
      <point x="145" y="614"/>
    </contour>
  </outline>
</glyph>
<glyph name="rsuperior" format="1">
  <advance width="248"/>
  <outline>
    <contour>
      <point x="67" y="390" type="line"/>
      <point x="132" y="390" type="line"/>
      <point x="132" y="636" type="line" smooth="yes"/>
      <point x="132" y="714"/>
      <point x="59" y="711"/>
      <point x="27" y="700" type="curve"/>
      <point x="27" y="655" type="line"/>
      <point x="49" y="655"/>
      <point x="67" y="651"/>
      <point x="67" y="625" type="curve" smooth="yes"/>
    </contour>
    <contour>
      <point x="132" y="565" type="line"/>
      <point x="132" y="625"/>
      <point x="144" y="650"/>
      <point x="191" y="650" type="curve" smooth="yes"/>
      <point x="207" y="650"/>
      <point x="228" y="650"/>
      <point x="228" y="650" type="curve"/>
      <point x="236" y="697" type="line"/>
      <point x="231" y="704"/>
      <point x="217" y="710"/>
      <point x="200" y="710" type="curve" smooth="yes"/>
      <point x="137" y="710"/>
      <point x="113" y="651"/>
      <point x="122" y="593" type="curve"/>
    </contour>
  </outline>
</glyph>
<glyph name="sevenprop" format="1">
  <advance width="524"/>
  <outline>
    <contour>
      <point x="466" y="700" type="line"/>
      <point x="42" y="700" type="line"/>
      <point x="42" y="625" type="line"/>
      <point x="385" y="625" type="line"/>
      <point x="106" y="0" type="line"/>
      <point x="199" y="0" type="line"/>
      <point x="477" y="637" type="line"/>
    </contour>
  </outline>
</glyph>
<glyph name="ssuperior" format="1">
  <advance width="327"/>
  <outline>
    <contour>
      <point x="279" y="612" type="line"/>
      <point x="284" y="673"/>
      <point x="238" y="710"/>
      <point x="174" y="710" type="curve" smooth="yes"/>
      <point x="105" y="710"/>
      <point x="55" y="669"/>
      <point x="55" y="612" type="curve" smooth="yes"/>
      <point x="55" y="493"/>
      <point x="224" y="543"/>
      <point x="224" y="471" type="curve" smooth="yes"/>
      <point x="224" y="445"/>
      <point x="204" y="430"/>
      <point x="173" y="430" type="curve" smooth="yes"/>
      <point x="131" y="430"/>
      <point x="110" y="454"/>
      <point x="107" y="488" type="curve"/>
      <point x="47" y="483" type="line"/>
      <point x="48" y="420"/>
      <point x="95" y="380"/>
      <point x="172" y="380" type="curve" smooth="yes"/>
      <point x="240" y="380"/>
      <point x="290" y="420"/>
      <point x="290" y="476" type="curve" smooth="yes"/>
      <point x="290" y="598"/>
      <point x="121" y="540"/>
      <point x="121" y="617" type="curve" smooth="yes"/>
      <point x="121" y="643"/>
      <point x="142" y="660"/>
      <point x="172" y="660" type="curve" smooth="yes"/>
      <point x="207" y="660"/>
      <point x="219" y="640"/>
      <point x="219" y="607" type="curve"/>
    </contour>
  </outline>
</glyph>
<glyph name="tilde.cap" format="1">
  <advance width="474"/>
  <outline>
    <contour>
      <point x="296" y="614" type="curve" smooth="yes"/>
      <point x="358" y="614"/>
      <point x="377" y="656"/>
      <point x="371" y="715" type="curve"/>
      <point x="318" y="715" type="line"/>
      <point x="318" y="687"/>
      <point x="311" y="672"/>
      <point x="295" y="672" type="curve" smooth="yes"/>
      <point x="276" y="672"/>
      <point x="225" y="714"/>
      <point x="182" y="714" type="curve" smooth="yes"/>
      <point x="128" y="714"/>
      <point x="103" y="671"/>
      <point x="108" y="614" type="curve"/>
      <point x="164" y="614" type="line"/>
      <point x="164" y="638"/>
      <point x="173" y="653"/>
      <point x="189" y="653" type="curve" smooth="yes"/>
      <point x="211" y="653"/>
      <point x="256" y="614"/>
    </contour>
  </outline>
</glyph>
<glyph name="vsuperior" format="1">
  <advance width="304"/>
  <outline>
    <contour>
      <point x="166" y="500" type="line"/>
      <point x="161" y="487"/>
      <point x="154" y="457"/>
      <point x="154" y="457" type="curve"/>
      <point x="153" y="457" type="line"/>
      <point x="153" y="457"/>
      <point x="147" y="486"/>
      <point x="143" y="500" type="curve" smooth="yes"/>
      <point x="81" y="700" type="line"/>
      <point x="12" y="700" type="line"/>
      <point x="121" y="390" type="line"/>
      <point x="182" y="390" type="line"/>
      <point x="292" y="700" type="line"/>
      <point x="226" y="700" type="line"/>
    </contour>
  </outline>
</glyph>
<glyph name="y.alt" format="1">
  <advance width="522"/>
  <outline>
    <contour>
      <point x="78" y="187" type="line" smooth="yes"/>
      <point x="78" y="75"/>
      <point x="130" y="27"/>
      <point x="237" y="27" type="curve"/>
      <point x="201" y="13"/>
      <point x="162" y="-5"/>
      <point x="129" y="-24" type="curve" smooth="yes"/>
      <point x="84" y="-50"/>
      <point x="75" y="-67"/>
      <point x="75" y="-107" type="curve" smooth="yes"/>
      <point x="75" y="-190"/>
      <point x="137" y="-245"/>
      <point x="259" y="-245" type="curve" smooth="yes"/>
      <point x="378.846153846" y="-245.0"/>
      <point x="449" y="-178"/>
      <point x="449" y="-44" type="curve" smooth="yes"/>
      <point x="449" y="495" type="line"/>
      <point x="363" y="458" type="line"/>
      <point x="363" y="-49" type="line" smooth="yes"/>
      <point x="363" y="-139"/>
      <point x="326.743119266" y="-175.0"/>
      <point x="259" y="-175" type="curve" smooth="yes"/>
      <point x="193" y="-175"/>
      <point x="159" y="-148"/>
      <point x="159" y="-101" type="curve" smooth="yes"/>
      <point x="159" y="-75"/>
      <point x="164" y="-60"/>
      <point x="189" y="-45" type="curve" smooth="yes"/>
      <point x="223" y="-24"/>
      <point x="270" y="-1"/>
      <point x="308" y="15" type="curve"/>
      <point x="308" y="85" type="line"/>
      <point x="266" y="85" type="line" smooth="yes"/>
      <point x="199.644230769" y="85"/>
      <point x="163" y="121"/>
      <point x="163" y="182" type="curve" smooth="yes"/>
      <point x="163" y="495" type="line"/>
      <point x="78" y="458" type="line"/>
    </contour>
  </outline>
</glyph>
